<svg width="492" height="437" viewBox="0 0 492 437" fill="none" xmlns="http://www.w3.org/2000/svg">
<g id="g10">
<g id="g12">
<path id="path16" d="M40.4855 434.426C40.4855 434.426 -20.8043 317.325 9.14943 196.768C28.6738 118.185 101.913 75.1282 143.246 118.185C160.85 136.526 210.115 112.112 247.486 42.8777C309.459 -71.9362 503.384 55.6321 443.57 285.22C416.242 390.123 462.98 376.69 451.261 436.222L40.4855 434.426Z" fill="#FFE6FF"/>
<path id="path18" d="M331.802 435.101H323.396V114.751H331.802V435.101Z" fill="#CCDDFC"/>
<path id="path20" d="M382.007 131.345H272.031V123.469H382.007V131.345Z" fill="#CCDDFC"/>
<path id="path22" d="M277.99 106.033H276.177V123.469H277.99V106.033Z" fill="#CCDDFC"/>
<path id="path24" d="M272.18 109.589C272.18 108.706 274.406 107.991 277.15 107.991C279.894 107.991 282.119 108.706 282.119 109.589C282.119 110.474 279.894 111.189 277.15 111.189C274.406 111.189 272.18 110.474 272.18 109.589Z" fill="#CCDDFC"/>
<path id="path26" d="M272.18 106.393C272.18 105.51 274.406 104.795 277.15 104.795C279.894 104.795 282.119 105.51 282.119 106.393C282.119 107.278 279.894 107.99 277.15 107.99C274.406 107.99 272.18 107.278 272.18 106.393Z" fill="#CCDDFC"/>
<path id="path28" d="M272.18 103.197C272.18 102.314 274.406 101.599 277.15 101.599C279.894 101.599 282.119 102.314 282.119 103.197C282.119 104.079 279.894 104.795 277.15 104.795C274.406 104.795 272.18 104.079 272.18 103.197Z" fill="#CCDDFC"/>
<path id="path30" d="M272.18 100.001C272.18 99.1186 274.406 98.4031 277.15 98.4031C279.894 98.4031 282.119 99.1186 282.119 100.001C282.119 100.884 279.894 101.599 277.15 101.599C274.406 101.599 272.18 100.884 272.18 100.001Z" fill="#CCDDFC"/>
<path id="path32" d="M280.099 110.156H274.069V99.2802H280.099V110.156Z" fill="#CCDDFC"/>
<path id="path34" d="M327.86 106.033H326.047V123.469H327.86V106.033Z" fill="#CCDDFC"/>
<path id="path36" d="M322.05 109.589C322.05 108.706 324.275 107.991 327.019 107.991C329.763 107.991 331.988 108.706 331.988 109.589C331.988 110.474 329.763 111.189 327.019 111.189C324.275 111.189 322.05 110.474 322.05 109.589Z" fill="#CCDDFC"/>
<path id="path38" d="M322.05 106.393C322.05 105.51 324.275 104.795 327.019 104.795C329.763 104.795 331.988 105.51 331.988 106.393C331.988 107.278 329.763 107.99 327.019 107.99C324.275 107.99 322.05 107.278 322.05 106.393Z" fill="#CCDDFC"/>
<path id="path40" d="M322.05 103.197C322.05 102.314 324.275 101.599 327.019 101.599C329.763 101.599 331.988 102.314 331.988 103.197C331.988 104.079 329.763 104.795 327.019 104.795C324.275 104.795 322.05 104.079 322.05 103.197Z" fill="#CCDDFC"/>
<path id="path42" d="M322.05 100.001C322.05 99.1186 324.275 98.4031 327.019 98.4031C329.763 98.4031 331.988 99.1186 331.988 100.001C331.988 100.884 329.763 101.599 327.019 101.599C324.275 101.599 322.05 100.884 322.05 100.001Z" fill="#CCDDFC"/>
<path id="path44" d="M329.969 110.156H323.937V99.2802H329.969V110.156Z" fill="#CCDDFC"/>
<path id="path46" d="M377.879 106.033H376.066V123.469H377.879V106.033Z" fill="#CCDDFC"/>
<path id="path48" d="M372.069 109.589C372.069 108.706 374.294 107.991 377.038 107.991C379.782 107.991 382.007 108.706 382.007 109.589C382.007 110.474 379.782 111.189 377.038 111.189C374.294 111.189 372.069 110.474 372.069 109.589Z" fill="#CCDDFC"/>
<path id="path50" d="M372.069 106.393C372.069 105.51 374.294 104.795 377.038 104.795C379.782 104.795 382.007 105.51 382.007 106.393C382.007 107.278 379.782 107.99 377.038 107.99C374.294 107.99 372.069 107.278 372.069 106.393Z" fill="#CCDDFC"/>
<path id="path52" d="M372.069 103.197C372.069 102.314 374.294 101.599 377.038 101.599C379.782 101.599 382.007 102.314 382.007 103.197C382.007 104.079 379.782 104.795 377.038 104.795C374.294 104.795 372.069 104.079 372.069 103.197Z" fill="#CCDDFC"/>
<path id="path54" d="M372.069 100.001C372.069 99.1186 374.294 98.4031 377.038 98.4031C379.782 98.4031 382.007 99.1186 382.007 100.001C382.007 100.884 379.782 101.599 377.038 101.599C374.294 101.599 372.069 100.884 372.069 100.001Z" fill="#CCDDFC"/>
<path id="path56" d="M379.988 110.156H373.958V99.2802H379.988V110.156Z" fill="#CCDDFC"/>
<path id="path58" d="M327.603 166.503L296.447 129.57L297.595 127.63L327.594 163.19L358.076 126.445L359.237 128.372L327.603 166.503Z" fill="#CCDDFC"/>
<path id="path60" d="M48.635 365.557H58.6057V291.432H48.635V365.557ZM58.7035 365.836H48.5372C48.483 365.836 48.4392 365.775 48.4392 365.698V291.291C48.4392 291.214 48.483 291.153 48.5372 291.153H58.7035C58.7576 291.153 58.8015 291.214 58.8015 291.291V365.698C58.8015 365.775 58.7576 365.836 58.7035 365.836Z" fill="#C0D8FB"/>
<path id="path62" d="M44.0172 415.16H63.1588L58.6177 365.836H48.6228L44.0172 415.16ZM63.2704 415.438H43.9054C43.8772 415.438 43.8503 415.423 43.8318 415.391C43.8132 415.362 43.8048 415.322 43.8085 415.282L48.4401 365.679C48.4464 365.608 48.4881 365.557 48.5372 365.557H58.7036C58.7527 365.557 58.7943 365.611 58.8006 365.679L63.3673 415.282C63.371 415.322 63.3624 415.362 63.3439 415.391C63.3253 415.423 63.2984 415.438 63.2704 415.438Z" fill="#C0D8FB"/>
<path id="path64" d="M42.1742 434.852H45.7084L51.4352 415.438H43.9914L42.1742 434.852ZM45.7736 435.131H42.0624C42.0342 435.131 42.0075 435.112 41.9889 435.083C41.9704 435.051 41.9618 435.011 41.9655 434.972L43.8088 415.282C43.8151 415.213 43.8568 415.16 43.9057 415.16H51.5823C51.6151 415.16 51.6458 415.184 51.6639 415.224C51.6818 415.261 51.6853 415.311 51.6726 415.354L45.8639 435.046C45.8486 435.096 45.813 435.131 45.7736 435.131Z" fill="#C0D8FB"/>
<path id="path66" d="M61.4366 434.852H64.971L63.1538 415.438H55.7097L61.4366 434.852ZM65.0828 435.131H61.3715C61.3321 435.131 61.2965 435.096 61.2811 435.046L55.4722 415.354C55.4597 415.311 55.4629 415.261 55.4812 415.224C55.4993 415.184 55.5297 415.16 55.5626 415.16H63.2395C63.2884 415.16 63.3298 415.213 63.3364 415.282L65.1797 434.972C65.1835 435.011 65.1751 435.051 65.1564 435.083C65.1377 435.112 65.1108 435.131 65.0828 435.131Z" fill="#C0D8FB"/>
<path id="path68" d="M26.2794 365.557H82.3183L58.6863 353.434H48.5552L26.2794 365.557ZM82.8772 365.836H25.751C25.7037 365.836 25.6632 365.788 25.6547 365.722C25.6461 365.655 25.6718 365.592 25.7159 365.568L48.502 353.166L48.5371 353.155H58.7035L58.7367 353.166L82.9104 365.565C82.9552 365.589 82.9817 365.653 82.9735 365.722C82.9653 365.788 82.9246 365.836 82.8772 365.836Z" fill="#C0D8FB"/>
<path id="path70" d="M29.5957 328.353H79.0035L58.6844 316.233H48.5585L29.5957 328.353ZM79.4889 328.632H29.14C29.0939 328.632 29.054 328.587 29.0445 328.523C29.0346 328.459 29.0577 328.393 29.0999 328.367L48.4972 315.965L48.5376 315.955H58.704L58.7419 315.965L79.5268 328.364C79.5697 328.391 79.594 328.457 79.5848 328.52C79.5755 328.587 79.5355 328.632 79.4889 328.632Z" fill="#C0D8FB"/>
<path id="path72" d="M34.9715 291.153H73.6286L57.3469 282.403H50.3189L34.9715 291.153ZM74.1636 291.432H34.4654C34.4184 291.432 34.3783 291.384 34.3693 291.318C34.3605 291.252 34.3854 291.188 34.4289 291.161L50.2635 282.136L50.3001 282.125H57.3649L57.3996 282.136L74.1982 291.161C74.2424 291.185 74.2683 291.252 74.2598 291.318C74.2512 291.381 74.2107 291.432 74.1636 291.432Z" fill="#C0D8FB"/>
<path id="path74" d="M50.4278 282.125H57.232L53.6261 265.499L50.4278 282.125ZM57.3645 282.403H50.2997C50.2691 282.403 50.2404 282.385 50.2219 282.35C50.2034 282.316 50.1972 282.271 50.2053 282.228L53.5261 264.964C53.5375 264.905 53.5754 264.863 53.6188 264.863C53.6661 264.863 53.7012 264.9 53.714 264.961L57.458 282.223C57.4672 282.265 57.4618 282.313 57.4433 282.347C57.4248 282.382 57.3955 282.403 57.3645 282.403Z" fill="#C0D8FB"/>
<path id="path76" d="M48.8008 291.431L53.6201 297.309L58.4392 291.431H48.8008ZM48.8008 303.553H58.4392L53.6201 297.675L48.8008 303.553ZM58.7032 303.831H48.5368C48.4959 303.831 48.4594 303.794 48.445 303.741C48.4308 303.685 48.442 303.624 48.473 303.587L53.4698 297.492L48.473 291.397C48.442 291.36 48.4308 291.296 48.445 291.243C48.4594 291.187 48.4959 291.153 48.5368 291.153H58.7032C58.744 291.153 58.7806 291.187 58.795 291.243C58.8092 291.296 58.798 291.36 58.7668 291.397L53.7702 297.492L58.7668 303.587C58.798 303.624 58.8092 303.685 58.795 303.741C58.7806 303.794 58.744 303.831 58.7032 303.831Z" fill="#C0D8FB"/>
<path id="path78" d="M48.8008 303.831L53.6201 309.709L58.4392 303.831H48.8008ZM48.8008 315.955H58.4392L53.6201 310.077L48.8008 315.955ZM58.7032 316.233H48.5368C48.4959 316.233 48.4594 316.196 48.445 316.14C48.4308 316.087 48.442 316.026 48.473 315.987L53.4698 309.892L48.473 303.797C48.442 303.76 48.4308 303.699 48.445 303.643C48.4594 303.59 48.4959 303.553 48.5368 303.553H58.7032C58.744 303.553 58.7806 303.59 58.795 303.643C58.8092 303.699 58.798 303.76 58.7668 303.797L53.7702 309.892L58.7668 315.987C58.798 316.026 58.8092 316.087 58.795 316.14C58.7806 316.196 58.744 316.233 58.7032 316.233Z" fill="#C0D8FB"/>
<path id="path80" d="M48.8008 316.233L53.6201 322.11L58.4392 316.233H48.8008ZM48.8008 328.353H58.4392L53.6201 322.476L48.8008 328.353ZM58.7032 328.632H48.5368C48.4959 328.632 48.4594 328.597 48.445 328.542C48.4308 328.486 48.442 328.425 48.473 328.388L53.4698 322.293L48.473 316.199C48.442 316.161 48.4308 316.101 48.445 316.045C48.4594 315.989 48.4959 315.955 48.5368 315.955H58.7032C58.744 315.955 58.7806 315.989 58.795 316.045C58.8092 316.101 58.798 316.161 58.7668 316.199L53.7702 322.293L58.7668 328.388C58.798 328.425 58.8092 328.486 58.795 328.542C58.7806 328.597 58.744 328.632 58.7032 328.632Z" fill="#C0D8FB"/>
<path id="path82" d="M48.8008 328.633L53.6201 334.51L58.4392 328.633H48.8008ZM48.8008 340.756H58.4392L53.6201 334.879L48.8008 340.756ZM58.7032 341.034H48.5368C48.4959 341.034 48.4594 340.997 48.445 340.944C48.4308 340.889 48.442 340.828 48.473 340.791L53.4698 334.696L48.473 328.599C48.442 328.561 48.4308 328.5 48.445 328.447C48.4594 328.392 48.4959 328.355 48.5368 328.355H58.7032C58.744 328.355 58.7806 328.392 58.795 328.447C58.8092 328.5 58.798 328.561 58.7668 328.599L53.7702 334.696L58.7668 340.791C58.798 340.828 58.8092 340.889 58.795 340.944C58.7806 340.997 58.744 341.034 58.7032 341.034Z" fill="#C0D8FB"/>
<path id="path84" d="M48.8008 341.035L53.6201 346.912L58.4392 341.035H48.8008ZM48.8008 353.155H58.4392L53.6201 347.278L48.8008 353.155ZM58.7032 353.434H48.5368C48.4959 353.434 48.4594 353.399 48.445 353.344C48.4308 353.291 48.442 353.227 48.473 353.19L53.4698 347.095L48.473 341.001C48.442 340.963 48.4308 340.902 48.445 340.847C48.4594 340.794 48.4959 340.757 48.5368 340.757H58.7032C58.744 340.757 58.7806 340.794 58.795 340.847C58.8092 340.902 58.798 340.963 58.7668 341.001L53.7702 347.095L58.7668 353.19C58.798 353.227 58.8092 353.291 58.795 353.344C58.7806 353.399 58.744 353.434 58.7032 353.434Z" fill="#C0D8FB"/>
<path id="path86" d="M48.8246 365.836L53.6171 371.08L58.4165 365.836H48.8246ZM47.6411 377.96H59.5843L53.6169 371.43L47.6411 377.96ZM59.8713 378.235H47.3535C47.3117 378.235 47.2743 378.198 47.2609 378.142C47.2473 378.087 47.2605 378.023 47.2937 377.986L53.4565 371.255L48.4778 365.807C48.4446 365.77 48.4313 365.709 48.4449 365.653C48.4584 365.595 48.4957 365.558 48.5375 365.558H58.7039C58.7457 365.558 58.7831 365.595 58.7965 365.653C58.8101 365.709 58.7969 365.77 58.7637 365.807L53.7774 371.255L59.9311 377.986C59.9643 378.023 59.9776 378.087 59.9639 378.142C59.9505 378.198 59.9132 378.235 59.8713 378.235Z" fill="#C0D8FB"/>
<path id="path88" d="M47.6878 378.235L53.6019 383.607L59.5353 378.235H47.6878ZM46.5048 390.359H60.6758L53.6017 383.935L46.5048 390.359ZM61.0103 390.637H46.1693C46.1258 390.637 46.0874 390.597 46.0752 390.536C46.0631 390.478 46.0801 390.414 46.1167 390.38L53.4201 383.771L47.3003 378.214C47.2639 378.182 47.2469 378.118 47.2592 378.057C47.2714 377.999 47.3096 377.959 47.3531 377.959H59.8707C59.9142 377.959 59.9525 377.999 59.9646 378.057C59.9768 378.118 59.96 378.182 59.9234 378.214L53.7837 383.771L61.063 390.38C61.0997 390.414 61.1164 390.478 61.1042 390.536C61.0921 390.597 61.0536 390.637 61.0103 390.637Z" fill="#C0D8FB"/>
<path id="path90" d="M46.5538 390.637L53.5929 396.08L60.627 390.637H46.5538ZM45.3696 402.761H61.8219L53.5929 396.396L45.3696 402.761ZM62.2061 403.039H44.9855C44.9408 403.039 44.9018 402.994 44.8908 402.933C44.8798 402.872 44.8996 402.809 44.9388 402.777L53.3883 396.239L46.1228 390.621C46.0834 390.589 46.0636 390.526 46.0748 390.465C46.0859 390.404 46.1249 390.359 46.1697 390.359H61.011C61.0556 390.359 61.0948 390.401 61.1056 390.465C61.1168 390.526 61.0971 390.589 61.0579 390.621L53.7975 396.239L62.2529 402.777C62.2923 402.809 62.3121 402.872 62.3009 402.933C62.2901 402.994 62.2509 403.039 62.2061 403.039Z" fill="#C0D8FB"/>
<path id="path92" d="M45.4182 403.039L53.6032 408.575L61.7739 403.039H45.4182ZM44.3376 415.16H62.886L53.6034 408.882L44.3376 415.16ZM63.3189 415.438H43.9054C43.8599 415.438 43.8201 415.393 43.8101 415.33C43.8 415.269 43.8222 415.203 43.8634 415.173L53.3761 408.729L44.9431 403.023C44.9019 402.997 44.8798 402.93 44.8897 402.869C44.8998 402.806 44.9394 402.761 44.9851 402.761H62.2058C62.2516 402.761 62.2911 402.806 62.3014 402.869C62.3115 402.93 62.2893 402.997 62.248 403.023L53.8308 408.729L63.3609 415.173C63.4024 415.203 63.4244 415.266 63.4145 415.33C63.4042 415.393 63.3647 415.438 63.3189 415.438Z" fill="#C0D8FB"/>
<path id="path94" d="M41.9327 328.632C41.9086 328.632 41.8851 328.618 41.867 328.597L37.6287 323.128L37.7605 322.921L41.9193 328.287L48.4589 316.01L48.6152 316.177L42.0107 328.576C41.9943 328.608 41.9691 328.629 41.9418 328.632H41.9327Z" fill="#C0D8FB"/>
<path id="path96" d="M66.7631 328.632C66.7368 328.632 66.7105 328.618 66.6912 328.587L58.6317 316.188L58.7754 316L66.7724 328.303L71.0199 323.372L71.1438 323.586L66.8251 328.6C66.807 328.621 66.7851 328.632 66.7631 328.632Z" fill="#C0D8FB"/>
<path id="path98" d="M48.6008 365.801L48.4733 365.592L58.6402 353.191L58.7675 353.403L48.6008 365.801Z" fill="#C0D8FB"/>
<path id="path100" d="M75.3525 365.918L67.9492 358.209L58.7528 365.817C58.7168 365.846 58.6714 365.841 58.6399 365.801L48.4733 353.403L48.6008 353.191L58.7145 365.526L67.9061 357.923C67.9397 357.894 67.9819 357.897 68.0132 357.931L75.4683 365.695L75.3525 365.918Z" fill="#C0D8FB"/>
<path id="path102" d="M35.9122 365.897L35.7614 365.719L40.5322 357.523C40.5505 357.491 40.5776 357.472 40.6063 357.472C40.637 357.472 40.6625 357.488 40.6816 357.52L45.6367 365.605L45.489 365.788L40.6097 357.825L35.9122 365.897Z" fill="#C0D8FB"/>
<path id="path104" d="M48.5372 291.432L48.4922 291.416L42.3374 286.903L42.4272 286.654L48.475 291.09L50.2052 282.228C50.214 282.183 50.2375 282.149 50.2683 282.133C50.2988 282.12 50.3327 282.125 50.3587 282.154L58.7178 291.132L66.0333 286.815L66.1085 287.072L58.7412 291.418C58.7092 291.44 58.6723 291.432 58.6447 291.403L50.3555 282.499L48.6315 291.328C48.6236 291.368 48.6033 291.403 48.5764 291.418L48.5372 291.432Z" fill="#C0D8FB"/>
<path id="path106" d="M48.5943 291.405L48.4801 291.177L57.3075 282.151C57.3342 282.125 57.3691 282.12 57.3999 282.135C57.4309 282.151 57.4536 282.191 57.4603 282.236L58.7995 291.262L58.608 291.32L57.2998 282.501L48.5943 291.405Z" fill="#C0D8FB"/>
<path id="path108" d="M52.1783 273.772L53.7605 276.298L55.2806 273.772H52.1783ZM57.2918 282.358L53.7633 276.722L50.3743 282.355L50.2256 282.175L53.6321 276.512L51.8873 273.724C51.8617 273.685 51.8554 273.626 51.8712 273.576C51.8869 273.526 51.9218 273.494 51.9605 273.494H55.4928C55.5311 273.494 55.5658 273.526 55.5817 273.576C55.5977 273.624 55.5919 273.682 55.5673 273.722L53.8916 276.51L57.4379 282.173L57.2918 282.358Z" fill="#C0D8FB"/>
<path id="path110" d="M108.956 309.921H126.852V176.883H108.956V309.921ZM127.027 310.422H108.781C108.684 310.422 108.605 310.308 108.605 310.17V176.634C108.605 176.496 108.684 176.385 108.781 176.385H127.027C127.124 176.385 127.203 176.496 127.203 176.634V310.17C127.203 310.308 127.124 310.422 127.027 310.422Z" fill="#C0D8FB"/>
<path id="path112" d="M100.669 398.947H135.023L126.873 310.421H108.934L100.669 398.947ZM135.223 399.446H100.468C100.417 399.446 100.369 399.414 100.336 399.361C100.303 399.305 100.287 399.234 100.294 399.162L108.607 310.137C108.618 310.013 108.693 309.92 108.781 309.92H127.027C127.115 309.92 127.19 310.013 127.201 310.137L135.397 399.162C135.404 399.234 135.388 399.305 135.355 399.361C135.322 399.414 135.274 399.446 135.223 399.446Z" fill="#C0D8FB"/>
<path id="path114" d="M97.3604 434.285H103.704L113.982 399.446H100.622L97.3604 434.285ZM103.82 434.783H97.1597C97.1092 434.783 97.061 434.754 97.0278 434.699C96.9944 434.646 96.979 434.574 96.9858 434.502L100.294 399.162C100.306 399.038 100.38 398.947 100.468 398.947H114.246C114.305 398.947 114.36 398.987 114.392 399.059C114.425 399.128 114.431 399.215 114.408 399.292L103.982 434.632C103.955 434.725 103.891 434.783 103.82 434.783Z" fill="#C0D8FB"/>
<path id="path116" d="M131.931 434.285H138.274L135.013 399.446H121.653L131.931 434.285ZM138.475 434.783H131.815C131.744 434.783 131.68 434.725 131.653 434.632L121.227 399.292C121.205 399.215 121.211 399.128 121.243 399.059C121.276 398.987 121.33 398.947 121.389 398.947H135.167C135.255 398.947 135.329 399.038 135.341 399.162L138.649 434.502C138.656 434.574 138.64 434.646 138.607 434.699C138.574 434.754 138.525 434.783 138.475 434.783Z" fill="#C0D8FB"/>
<path id="path118" d="M68.8344 309.921H169.409L126.996 288.164H108.813L68.8344 309.921ZM170.412 310.422H67.8856C67.801 310.422 67.7284 310.334 67.7129 310.218C67.6974 310.098 67.7435 309.982 67.8227 309.939L108.718 287.682C108.738 287.671 108.759 287.666 108.781 287.666H127.027C127.047 287.666 127.067 287.671 127.087 287.679L170.472 309.937C170.552 309.979 170.6 310.096 170.585 310.215C170.57 310.334 170.498 310.422 170.412 310.422Z" fill="#C0D8FB"/>
<path id="path120" d="M74.7853 243.154H163.458L126.991 221.395H108.818L74.7853 243.154ZM164.33 243.652H73.9675C73.8846 243.652 73.8131 243.57 73.7958 243.453C73.7784 243.34 73.8199 243.223 73.8955 243.175L108.708 220.918C108.731 220.905 108.756 220.897 108.78 220.897H127.027C127.05 220.897 127.073 220.905 127.095 220.916L164.397 243.173C164.475 243.218 164.518 243.334 164.502 243.451C164.485 243.567 164.414 243.652 164.33 243.652Z" fill="#C0D8FB"/>
<path id="path122" d="M84.4337 176.385H153.811L124.591 160.683H111.978L84.4337 176.385ZM154.772 176.883H83.525C83.4408 176.883 83.3686 176.798 83.3527 176.681C83.3369 176.565 83.3815 176.448 83.4595 176.403L111.878 160.201C111.899 160.19 111.921 160.185 111.944 160.185H124.623C124.644 160.185 124.666 160.19 124.685 160.201L154.834 176.401C154.914 176.443 154.959 176.56 154.944 176.679C154.929 176.798 154.856 176.883 154.772 176.883Z" fill="#C0D8FB"/>
<path id="path124" d="M112.174 160.185H124.385L117.914 130.343L112.174 160.185ZM124.623 160.683H111.944C111.889 160.683 111.837 160.646 111.804 160.585C111.771 160.522 111.76 160.442 111.774 160.368L117.734 129.384C117.755 129.275 117.823 129.201 117.901 129.201C117.985 129.201 118.048 129.27 118.071 129.376L124.791 160.36C124.807 160.437 124.797 160.519 124.764 160.583C124.731 160.646 124.679 160.683 124.623 160.683Z" fill="#C0D8FB"/>
<path id="path126" d="M109.254 176.883L117.904 187.432L126.553 176.883H109.254ZM109.254 198.642H126.553L117.904 188.09L109.254 198.642ZM127.027 199.14H108.78C108.707 199.14 108.642 199.074 108.616 198.976C108.59 198.878 108.61 198.769 108.666 198.7L117.634 187.761L108.666 176.822C108.61 176.756 108.59 176.644 108.616 176.546C108.642 176.448 108.707 176.385 108.78 176.385H127.027C127.1 176.385 127.166 176.448 127.192 176.546C127.217 176.644 127.197 176.756 127.141 176.822L118.173 187.761L127.141 198.7C127.197 198.769 127.217 198.878 127.192 198.976C127.166 199.074 127.1 199.14 127.027 199.14Z" fill="#C0D8FB"/>
<path id="path128" d="M109.254 199.14L117.904 209.69L126.553 199.14H109.254ZM109.254 220.897H126.553L117.904 210.347L109.254 220.897ZM127.027 221.395H108.78C108.707 221.395 108.642 221.331 108.616 221.233C108.59 221.135 108.61 221.024 108.666 220.958L117.634 210.018L108.666 199.079C108.61 199.01 108.59 198.902 108.616 198.804C108.642 198.706 108.707 198.642 108.78 198.642H127.027C127.1 198.642 127.166 198.706 127.192 198.804C127.217 198.902 127.197 199.01 127.141 199.079L118.173 210.018L127.141 220.958C127.197 221.024 127.217 221.135 127.192 221.233C127.166 221.331 127.1 221.395 127.027 221.395Z" fill="#C0D8FB"/>
<path id="path130" d="M109.254 221.395L117.904 231.945L126.553 221.395H109.254ZM109.254 243.154H126.553L117.904 232.602L109.254 243.154ZM127.027 243.652H108.78C108.707 243.652 108.642 243.586 108.616 243.488C108.59 243.39 108.61 243.281 108.666 243.212L117.634 232.273L108.666 221.337C108.61 221.268 108.59 221.157 108.616 221.059C108.642 220.964 108.707 220.897 108.78 220.897H127.027C127.1 220.897 127.166 220.964 127.192 221.059C127.217 221.157 127.197 221.268 127.141 221.337L118.173 232.273L127.141 243.212C127.197 243.281 127.217 243.39 127.192 243.488C127.166 243.586 127.1 243.652 127.027 243.652Z" fill="#C0D8FB"/>
<path id="path132" d="M109.254 243.652L117.904 254.202L126.553 243.652H109.254ZM109.254 265.408H126.553L117.904 254.859L109.254 265.408ZM127.027 265.906H108.78C108.707 265.906 108.642 265.843 108.616 265.745C108.59 265.647 108.61 265.538 108.666 265.469L117.634 254.53L108.666 243.591C108.61 243.522 108.59 243.414 108.616 243.316C108.642 243.218 108.707 243.154 108.78 243.154H127.027C127.1 243.154 127.166 243.218 127.192 243.316C127.217 243.414 127.197 243.522 127.141 243.591L118.173 254.53L127.141 265.469C127.197 265.538 127.217 265.647 127.192 265.745C127.166 265.843 127.1 265.906 127.027 265.906Z" fill="#C0D8FB"/>
<path id="path134" d="M109.254 265.907L117.904 276.459L126.553 265.907H109.254ZM109.254 287.666H126.553L117.904 277.116L109.254 287.666ZM127.027 288.164H108.78C108.707 288.164 108.642 288.098 108.616 288.003C108.59 287.905 108.61 287.793 108.666 287.724L117.634 276.788L108.666 265.849C108.61 265.78 108.59 265.671 108.616 265.573C108.642 265.475 108.707 265.409 108.78 265.409H127.027C127.1 265.409 127.166 265.475 127.192 265.573C127.217 265.671 127.197 265.78 127.141 265.849L118.173 276.788L127.141 287.724C127.197 287.793 127.217 287.905 127.192 288.003C127.166 288.098 127.1 288.164 127.027 288.164Z" fill="#C0D8FB"/>
<path id="path136" d="M109.296 310.421L117.897 319.831L126.51 310.421H109.296ZM107.172 332.178H128.606L117.897 320.459L107.172 332.178ZM129.122 332.676H106.656C106.581 332.676 106.514 332.607 106.49 332.507C106.465 332.406 106.489 332.295 106.549 332.228L117.609 320.144L108.673 310.368C108.614 310.302 108.59 310.19 108.614 310.09C108.639 309.989 108.705 309.92 108.78 309.92H127.027C127.102 309.92 127.169 309.989 127.193 310.09C127.217 310.19 127.193 310.302 127.134 310.368L118.185 320.144L129.229 332.228C129.288 332.295 129.312 332.406 129.288 332.507C129.264 332.607 129.197 332.676 129.122 332.676Z" fill="#C0D8FB"/>
<path id="path138" d="M107.256 332.676L117.87 342.315L128.519 332.676H107.256ZM105.133 354.433H130.566L117.87 342.906L105.133 354.433ZM131.167 354.934H104.531C104.453 354.934 104.384 354.86 104.362 354.754C104.34 354.648 104.371 354.534 104.437 354.473L117.544 342.609L106.561 332.637C106.495 332.578 106.465 332.464 106.487 332.358C106.509 332.25 106.578 332.178 106.656 332.178H129.121C129.199 332.178 129.268 332.25 129.29 332.358C129.312 332.464 129.282 332.578 129.216 332.637L118.197 342.611L131.261 354.473C131.327 354.534 131.357 354.648 131.335 354.754C131.313 354.86 131.245 354.934 131.167 354.934Z" fill="#C0D8FB"/>
<path id="path140" d="M105.221 354.934L117.853 364.702L130.478 354.934H105.221ZM103.095 376.69H132.622L117.854 365.269L103.095 376.69ZM133.312 377.188H102.406C102.326 377.188 102.256 377.112 102.236 377C102.216 376.892 102.252 376.775 102.322 376.719L117.486 364.985L104.447 354.902C104.377 354.849 104.341 354.732 104.361 354.621C104.381 354.512 104.451 354.433 104.531 354.433H131.167C131.247 354.433 131.317 354.512 131.337 354.621C131.357 354.732 131.321 354.849 131.251 354.902L118.221 364.985L133.396 376.719C133.466 376.775 133.502 376.892 133.482 377C133.462 377.112 133.392 377.188 133.312 377.188Z" fill="#C0D8FB"/>
<path id="path142" d="M103.183 377.188L117.873 387.126L132.536 377.188H103.183ZM101.243 398.947H134.533L117.873 387.677L101.243 398.947ZM135.31 399.446H100.468C100.386 399.446 100.315 399.364 100.297 399.25C100.279 399.138 100.318 399.022 100.392 398.971L117.465 387.401L102.33 377.164C102.256 377.114 102.217 376.998 102.235 376.884C102.253 376.77 102.324 376.69 102.406 376.69H133.312C133.394 376.69 133.465 376.77 133.483 376.884C133.501 376.998 133.462 377.114 133.388 377.164L118.281 387.401L135.385 398.971C135.459 399.022 135.499 399.136 135.481 399.25C135.463 399.364 135.392 399.446 135.31 399.446Z" fill="#C0D8FB"/>
<path id="path144" d="M96.9278 243.652C96.8841 243.652 96.8421 243.628 96.8095 243.586L89.203 233.77L89.4394 233.402L96.9035 243.035L108.641 220.995L108.921 221.297L97.0678 243.554C97.0379 243.61 96.993 243.644 96.944 243.65L96.9278 243.652Z" fill="#C0D8FB"/>
<path id="path146" d="M141.492 243.652C141.444 243.652 141.397 243.626 141.363 243.573L126.898 221.315L127.156 220.976L141.508 243.061L149.132 234.208L149.354 234.595L141.603 243.597C141.57 243.634 141.531 243.652 141.492 243.652Z" fill="#C0D8FB"/>
<path id="path148" d="M108.895 310.361L108.666 309.982L126.913 287.724L127.142 288.103L108.895 310.361Z" fill="#C0D8FB"/>
<path id="path150" d="M156.908 310.57L143.621 296.732L127.115 310.387C127.05 310.44 126.969 310.43 126.912 310.361L108.666 288.104L108.895 287.725L127.046 309.865L143.543 296.218C143.603 296.168 143.679 296.173 143.736 296.231L157.116 310.167L156.908 310.57Z" fill="#C0D8FB"/>
<path id="path152" d="M86.1229 310.527L85.8524 310.209L94.4146 295.502C94.4473 295.444 94.496 295.412 94.5477 295.409C94.6026 295.409 94.6485 295.441 94.6825 295.497L103.576 310.008L103.311 310.333L94.5533 296.045L86.1229 310.527Z" fill="#C0D8FB"/>
<path id="path154" d="M108.78 176.883C108.753 176.883 108.725 176.875 108.7 176.856L97.6538 168.755L97.8151 168.313L108.669 176.271L111.774 160.368C111.79 160.288 111.832 160.225 111.887 160.198C111.942 160.172 112.003 160.185 112.05 160.235L127.052 176.35L140.181 168.599L140.316 169.06L127.094 176.864C127.037 176.899 126.97 176.885 126.921 176.832L112.044 160.853L108.95 176.7C108.936 176.774 108.899 176.832 108.851 176.862C108.828 176.875 108.804 176.883 108.78 176.883Z" fill="#C0D8FB"/>
<path id="path156" d="M108.883 176.835L108.678 176.432L124.521 160.23C124.569 160.183 124.631 160.172 124.687 160.201C124.742 160.23 124.783 160.299 124.795 160.381L127.199 176.583L126.855 176.684L124.507 160.861L108.883 176.835Z" fill="#C0D8FB"/>
<path id="path158" d="M115.315 145.191L118.154 149.726L120.882 145.191H115.315ZM124.492 160.599L118.159 150.486L112.077 160.596L111.81 160.273L117.924 150.11L114.792 145.107C114.746 145.032 114.735 144.929 114.763 144.839C114.792 144.749 114.855 144.693 114.924 144.693H121.263C121.332 144.693 121.394 144.749 121.423 144.836C121.451 144.926 121.441 145.03 121.397 145.104L118.39 150.102L124.754 160.267L124.492 160.599Z" fill="#C0D8FB"/>
<path id="path160" d="M221.435 127.866C221.099 125.989 220.908 125.809 220.908 125.809C220.908 125.809 207.752 126.853 206.515 126.874C205.277 126.896 188.395 120.422 188.395 120.422L179.715 133.584C179.715 133.584 203.466 136.928 206.6 136.788C211.779 136.555 221.411 130.59 221.411 130.59C221.411 130.59 221.698 129.342 221.435 127.866Z" fill="#77A4E5"/>
<path id="path162" d="M217.549 237.483C217.549 237.483 217.31 245.02 218.375 245.671C219.441 246.323 231.823 245.104 231.823 245.104C231.823 245.104 231.735 242.905 229.585 242.584C227.433 242.264 224.451 240.213 222.826 236.821C220.556 232.085 217.549 237.483 217.549 237.483Z" fill="#2C3A64"/>
<path id="path164" d="M197.095 171.575C197.095 171.575 214.397 192.719 216.624 199.543C218.849 206.367 225.721 237.12 225.721 237.12C225.721 237.12 223.826 238.739 219.964 239.041C218.256 239.176 217.026 238.177 217.026 238.177C217.026 238.177 207.005 210.275 206.128 207.583C205.253 204.893 182.976 194.402 176.857 178.507L197.095 171.575Z" fill="#1D3F77"/>
<path id="path166" d="M229.774 434.659H219.574V46.0786H229.774V434.659Z" fill="#ADC8FE"/>
<path id="path168" d="M290.705 66.2083H157.237V56.6577H290.705V66.2083Z" fill="#ADC8FE"/>
<path id="path170" d="M164.47 35.5027H162.269V56.6577H164.47V35.5027Z" fill="#ADC8FE"/>
<path id="path172" d="M157.419 39.8195C157.419 38.7489 160.119 37.8824 163.451 37.8824C166.781 37.8824 169.482 38.7489 169.482 39.8195C169.482 40.8901 166.781 41.7593 163.451 41.7593C160.119 41.7593 157.419 40.8901 157.419 39.8195Z" fill="#ADC8FE"/>
<path id="path174" d="M157.419 35.9425C157.419 34.8719 160.119 34.0054 163.451 34.0054C166.781 34.0054 169.482 34.8719 169.482 35.9425C169.482 37.0131 166.781 37.8823 163.451 37.8823C160.119 37.8823 157.419 37.0131 157.419 35.9425Z" fill="#ADC8FE"/>
<path id="path176" d="M157.419 32.0656C157.419 30.995 160.119 30.1284 163.451 30.1284C166.781 30.1284 169.482 30.995 169.482 32.0656C169.482 33.1362 166.781 34.0054 163.451 34.0054C160.119 34.0054 157.419 33.1362 157.419 32.0656Z" fill="#ADC8FE"/>
<path id="path178" d="M157.419 28.1887C157.419 27.1181 160.119 26.2515 163.451 26.2515C166.781 26.2515 169.482 27.1181 169.482 28.1887C169.482 29.2593 166.781 30.1285 163.451 30.1285C160.119 30.1285 157.419 29.2593 157.419 28.1887Z" fill="#ADC8FE"/>
<path id="path180" d="M167.029 40.5087H159.71V27.3168H167.029V40.5087Z" fill="#ADC8FE"/>
<path id="path182" d="M224.991 35.5027H222.79V56.6577H224.991V35.5027Z" fill="#ADC8FE"/>
<path id="path184" d="M217.941 39.8195C217.941 38.7489 220.64 37.8824 223.971 37.8824C227.301 37.8824 230.001 38.7489 230.001 39.8195C230.001 40.8901 227.301 41.7593 223.971 41.7593C220.64 41.7593 217.941 40.8901 217.941 39.8195Z" fill="#ADC8FE"/>
<path id="path186" d="M217.941 35.9425C217.941 34.8719 220.64 34.0054 223.971 34.0054C227.301 34.0054 230.001 34.8719 230.001 35.9425C230.001 37.0131 227.301 37.8823 223.971 37.8823C220.64 37.8823 217.941 37.0131 217.941 35.9425Z" fill="#ADC8FE"/>
<path id="path188" d="M217.941 32.0656C217.941 30.995 220.64 30.1284 223.971 30.1284C227.301 30.1284 230.001 30.995 230.001 32.0656C230.001 33.1362 227.301 34.0054 223.971 34.0054C220.64 34.0054 217.941 33.1362 217.941 32.0656Z" fill="#ADC8FE"/>
<path id="path190" d="M217.941 28.1887C217.941 27.1181 220.64 26.2515 223.971 26.2515C227.301 26.2515 230.001 27.1181 230.001 28.1887C230.001 29.2593 227.301 30.1285 223.971 30.1285C220.64 30.1285 217.941 29.2593 217.941 28.1887Z" fill="#ADC8FE"/>
<path id="path192" d="M227.549 40.5087H220.231V27.3168H227.549V40.5087Z" fill="#ADC8FE"/>
<path id="path194" d="M285.693 35.5027H283.492V56.6577H285.693V35.5027Z" fill="#ADC8FE"/>
<path id="path196" d="M278.643 39.8195C278.643 38.7489 281.342 37.8824 284.674 37.8824C288.004 37.8824 290.705 38.7489 290.705 39.8195C290.705 40.8901 288.004 41.7593 284.674 41.7593C281.342 41.7593 278.643 40.8901 278.643 39.8195Z" fill="#ADC8FE"/>
<path id="path198" d="M278.643 35.9425C278.643 34.8719 281.342 34.0054 284.674 34.0054C288.004 34.0054 290.705 34.8719 290.705 35.9425C290.705 37.0131 288.004 37.8823 284.674 37.8823C281.342 37.8823 278.643 37.0131 278.643 35.9425Z" fill="#ADC8FE"/>
<path id="path200" d="M278.643 32.0656C278.643 30.995 281.342 30.1284 284.674 30.1284C288.004 30.1284 290.705 30.995 290.705 32.0656C290.705 33.1362 288.004 34.0054 284.674 34.0054C281.342 34.0054 278.643 33.1362 278.643 32.0656Z" fill="#ADC8FE"/>
<path id="path202" d="M278.643 28.1887C278.643 27.1181 281.342 26.2515 284.674 26.2515C288.004 26.2515 290.705 27.1181 290.705 28.1887C290.705 29.2593 288.004 30.1285 284.674 30.1285C281.342 30.1285 278.643 29.2593 278.643 28.1887Z" fill="#ADC8FE"/>
<path id="path204" d="M288.253 40.5087H280.935V27.3168H288.253V40.5087Z" fill="#ADC8FE"/>
<path id="path206" d="M224.679 108.855L186.868 64.0564L188.262 61.7032L224.668 104.835L261.662 60.2642L263.071 62.6015L224.679 108.855Z" fill="#ADC8FE"/>
<path id="path208" d="M238.39 133.966H211.11V86.5281H238.39V133.966Z" fill="#2A4E96"/>
<path id="path210" d="M198.48 169.932L197.157 171.13L196.149 169.14L196.974 167.748C197.112 167.52 197.319 167.401 197.528 167.436L198.238 167.544C198.523 167.587 198.74 167.928 198.74 168.337V169.261C198.74 169.375 198.725 169.487 198.689 169.587C198.648 169.728 198.575 169.847 198.48 169.932ZM198.592 167.004C198.495 166.943 198.394 166.903 198.286 166.887L197.581 166.778C197.215 166.723 196.856 166.927 196.618 167.327L195.561 169.105L197.034 172.023L198.732 170.488C198.995 170.25 199.165 169.863 199.197 169.428C199.204 169.373 199.206 169.317 199.206 169.261V168.337C199.206 167.743 198.958 167.226 198.592 167.004Z" fill="#1D3F77"/>
<path id="path212" d="M229.774 152.757V156.271C229.774 156.271 203.789 167.807 199.197 169.428C198.979 169.503 198.809 169.561 198.691 169.59L198.69 169.587C198.725 169.487 198.74 169.375 198.74 169.261V168.337C198.74 167.928 198.523 167.587 198.238 167.544L197.529 167.436C197.529 167.436 197.911 167.279 198.593 167.004C203.506 164.992 224.037 156.52 229.774 152.757Z" fill="#F99746"/>
<path id="path214" d="M209.77 243.424C209.77 243.424 208.652 250.802 209.628 251.695C210.603 252.588 222.957 254.279 222.957 254.279C222.957 254.279 223.128 252.09 221.043 251.268C218.96 250.449 216.259 247.731 215.051 244.005C213.365 238.805 209.77 243.424 209.77 243.424Z" fill="#2C3A64"/>
<path id="path216" d="M180.35 115.281C180.35 115.281 186.228 124.665 190.656 123.483C190.656 123.483 189.446 121.479 188.096 119.685C187.693 119.153 187.814 117.888 187.96 117.136C188.042 116.712 188.117 116.309 188.184 115.933C188.619 113.471 188.748 112.051 188.748 112.051L185.765 107.728L183.739 104.798C183.654 106.215 183.551 107.535 183.219 108.643C181.961 112.861 180.35 115.281 180.35 115.281Z" fill="#6F4F1D"/>
<path id="path218" d="M183.219 108.643C183.219 108.643 184.333 114.065 188.184 115.933C188.619 113.471 188.748 112.051 188.748 112.051L185.765 107.729C184.107 108.015 183.219 108.643 183.219 108.643Z" fill="#6F4F1D"/>
<path id="path220" d="M190.065 112.127C190.065 112.127 182.875 112.591 182.741 106.255C182.604 99.9162 181.585 95.7107 186.17 95.1436C190.754 94.5791 191.699 96.9588 192.108 99.0603C192.516 101.159 191.932 111.841 190.065 112.127Z" fill="#6F4F1D"/>
<path id="path222" d="M195.436 147.881C195.408 147.253 195.387 146.617 195.371 145.968C195.294 142.679 195.012 139.372 194.559 136.282C194.21 133.884 193.756 131.616 193.215 129.596C192.418 126.623 191.479 124.553 190.293 122.664L188.35 119.852C183.717 120.533 180.35 115.281 180.35 115.281C180.35 115.281 169.278 128.86 172.166 158.068C172.166 158.068 172.444 160.18 172.933 163.219C173.04 163.877 173.155 164.582 173.282 165.318C174.134 170.321 195.789 156.25 195.436 147.881Z" fill="#AFCDFB"/>
<path id="path224" d="M178.735 96.8369C178.653 96.7441 178.489 96.6938 178.143 96.7521C178.143 96.7521 178.386 96.4394 178.75 96.3334C178.735 95.6311 178.838 94.3591 179.62 93.8583C179.62 93.8583 179.222 94.3061 179.256 95.0481C180.029 93.4078 181.934 91.8787 187.644 91.1023C195.171 90.0794 193.582 97.5179 192.724 98.5726C191.865 99.6273 189.168 98.0055 187.404 98.6574C185.638 99.312 185.765 103.112 185.222 103.775C184.678 104.437 184.803 103.475 183.915 103.149C183.026 102.823 183.194 104.797 183.592 106.009C183.99 107.22 183.071 109.181 183.071 109.181C183.071 109.181 183.071 109.181 181.708 107.702C180.346 106.226 178.332 99.0231 178.649 97.298C178.679 97.1469 178.705 96.9932 178.735 96.8369Z" fill="#2B478B"/>
<path id="path226" d="M176.293 140.761C176.293 140.761 179.399 155.598 182.92 158.004C186.438 160.41 186.235 147.704 186.235 147.704L176.293 140.761Z" fill="#77A4E5"/>
<path id="path228" d="M199.526 176.631C193.943 173.117 195.789 156.25 195.436 147.881C195.408 147.253 195.388 146.617 195.371 145.968C195.295 142.679 195.013 139.372 194.559 136.282C194.21 133.884 193.756 131.615 193.215 129.596L185.496 131.377C184.016 131.719 182.948 133.566 183.002 135.686C183.142 141.134 182.791 151.244 178.733 156.401C175.81 160.116 174.003 162.133 172.933 163.219C173.04 163.877 173.156 164.581 173.282 165.318C174.134 170.321 175.084 176.684 177.109 180.328C178.672 183.137 200.122 177.005 199.526 176.631Z" fill="#2A4E96"/>
<path id="path230" d="M179.592 116.349C179.592 116.349 181.721 117.48 184.506 122.696C186.869 127.124 187.743 131.372 187.743 131.372L186.463 131.774C186.463 131.774 184.564 122.513 178.819 117.594C178.819 117.594 178.834 117.414 179.592 116.349Z" fill="#2A4E96"/>
<path id="path232" d="M213.134 123.978C213.134 123.978 214.463 119.68 214.818 119.094C215.17 118.506 217.046 116.481 217.185 116.582C217.323 116.683 217.377 117.462 217.039 117.918C216.8 118.238 216.522 118.532 216.667 118.564C216.813 118.596 217.478 117.109 218.002 117.597C218.527 118.087 219.768 120.26 218.971 121.967C218.176 123.673 215.139 125.486 214.976 125.746C213.604 127.937 213.134 123.978 213.134 123.978Z" fill="#6F4F1D"/>
<path id="path234" d="M213.134 123.978C213.134 123.978 199.25 141.399 197.936 141.603C195.841 141.932 184.135 126.816 184.135 126.816C184.135 126.816 182.584 123.045 179.151 124.895C176.168 126.504 174.869 131.586 174.869 131.586C174.869 131.586 173.859 136.597 175.612 139.589C179.495 146.225 194.32 152.897 198.74 152.097C204.443 151.066 215.008 129.029 215.008 129.029C215.008 129.029 215.647 127.055 214.977 125.746C214.387 124.588 213.134 123.978 213.134 123.978Z" fill="#AFCDFB"/>
<path id="path236" d="M216.5 244.254C216.5 244.254 214.441 245.41 210.597 244.806C208.899 244.538 207.801 243.266 207.801 243.266C207.801 243.266 207.202 240.566 206.349 236.71C206.218 236.114 206.082 235.493 205.936 234.847C205.75 234.004 205.557 233.119 205.356 232.215C205.221 231.601 205.083 230.978 204.947 230.35C203.08 221.891 200.934 212.123 200.631 210.546C200.08 207.687 179.338 192.134 175.162 175.023L195.854 169.121C195.854 169.121 210.525 197.821 211.923 205.071C212.668 208.94 213.922 219.842 214.928 229.165C214.995 229.783 215.061 230.389 215.124 230.988C215.221 231.9 215.314 232.79 215.408 233.646C215.473 234.274 215.537 234.879 215.6 235.467C216.136 240.595 216.5 244.254 216.5 244.254Z" fill="#2A4E96"/>
<path id="path238" d="M195.854 169.124C195.854 169.124 187.891 178.022 176.293 179.559C176.293 179.559 177.29 183.277 179.379 185.042C179.379 185.042 191.826 182.376 197.096 171.575L195.854 169.124Z" fill="#F99746"/>
<path id="path240" d="M222.956 255.103C222.93 255.103 222.906 255.103 222.88 255.098L206.171 251.992C205.852 251.933 205.628 251.52 205.669 251.07C205.712 250.616 206.003 250.298 206.322 250.359L222.902 253.439L229.596 250.391C229.9 250.251 230.229 250.489 230.328 250.924C230.427 251.356 230.259 251.819 229.953 251.96L223.134 255.063C223.076 255.09 223.016 255.103 222.956 255.103Z" fill="#19243F"/>
<path id="path242" d="M215.124 230.988C212.439 232.074 209.72 232.323 207.707 232.323C206.729 232.323 205.915 232.263 205.355 232.215C205.221 231.6 205.083 230.977 204.947 230.349C204.995 230.355 205.051 230.357 205.117 230.365C206.554 230.498 210.832 230.885 214.928 229.165C214.995 229.782 215.06 230.389 215.124 230.988Z" fill="white"/>
<path id="path244" d="M215.599 235.466C212.938 236.534 210.244 236.778 208.247 236.778C207.506 236.778 206.864 236.744 206.348 236.709C206.218 236.113 206.082 235.493 205.936 234.846C207.586 234.987 211.569 235.238 215.407 233.646C215.473 234.274 215.536 234.878 215.599 235.466Z" fill="white"/>
<path id="path246" d="M238.39 133.966H217.377V86.5281H238.39V133.966Z" fill="#233862"/>
<path id="path248" d="M402.14 436.222H396.273V211.82H402.14V436.222Z" fill="#D8E6FB"/>
<path id="path250" d="M437.191 223.446H360.41V217.929H437.191V223.446Z" fill="#D8E6FB"/>
<path id="path252" d="M364.571 205.715H363.305V217.929H364.571V205.715Z" fill="#D8E6FB"/>
<path id="path254" d="M360.515 208.206C360.515 207.588 362.068 207.087 363.983 207.087C365.9 207.087 367.453 207.588 367.453 208.206C367.453 208.826 365.9 209.327 363.983 209.327C362.068 209.327 360.515 208.826 360.515 208.206Z" fill="#D8E6FB"/>
<path id="path256" d="M360.515 205.967C360.515 205.349 362.068 204.848 363.983 204.848C365.9 204.848 367.453 205.349 367.453 205.967C367.453 206.587 365.9 207.088 363.983 207.088C362.068 207.088 360.515 206.587 360.515 205.967Z" fill="#D8E6FB"/>
<path id="path258" d="M360.515 203.727C360.515 203.11 362.068 202.609 363.983 202.609C365.9 202.609 367.453 203.11 367.453 203.727C367.453 204.347 365.9 204.848 363.983 204.848C362.068 204.848 360.515 204.347 360.515 203.727Z" fill="#D8E6FB"/>
<path id="path260" d="M360.515 201.491C360.515 200.871 362.068 200.37 363.983 200.37C365.9 200.37 367.453 200.871 367.453 201.491C367.453 202.108 365.9 202.609 363.983 202.609C362.068 202.609 360.515 202.108 360.515 201.491Z" fill="#D8E6FB"/>
<path id="path262" d="M366.042 208.603H361.833V200.985H366.042V208.603Z" fill="#D8E6FB"/>
<path id="path264" d="M399.387 205.715H398.122V217.929H399.387V205.715Z" fill="#D8E6FB"/>
<path id="path266" d="M395.332 208.206C395.332 207.588 396.885 207.087 398.8 207.087C400.717 207.087 402.269 207.588 402.269 208.206C402.269 208.826 400.717 209.327 398.8 209.327C396.885 209.327 395.332 208.826 395.332 208.206Z" fill="#D8E6FB"/>
<path id="path268" d="M395.332 205.967C395.332 205.349 396.885 204.848 398.8 204.848C400.717 204.848 402.269 205.349 402.269 205.967C402.269 206.587 400.717 207.088 398.8 207.088C396.885 207.088 395.332 206.587 395.332 205.967Z" fill="#D8E6FB"/>
<path id="path270" d="M395.332 203.727C395.332 203.11 396.885 202.609 398.8 202.609C400.717 202.609 402.269 203.11 402.269 203.727C402.269 204.347 400.717 204.848 398.8 204.848C396.885 204.848 395.332 204.347 395.332 203.727Z" fill="#D8E6FB"/>
<path id="path272" d="M395.332 201.491C395.332 200.871 396.885 200.37 398.8 200.37C400.717 200.37 402.269 200.871 402.269 201.491C402.269 202.108 400.717 202.609 398.8 202.609C396.885 202.609 395.332 202.108 395.332 201.491Z" fill="#D8E6FB"/>
<path id="path274" d="M400.859 208.603H396.65V200.985H400.859V208.603Z" fill="#D8E6FB"/>
<path id="path276" d="M434.309 205.715H433.044V217.929H434.309V205.715Z" fill="#D8E6FB"/>
<path id="path278" d="M430.253 208.206C430.253 207.588 431.807 207.087 433.722 207.087C435.639 207.087 437.192 207.588 437.192 208.206C437.192 208.826 435.639 209.327 433.722 209.327C431.807 209.327 430.253 208.826 430.253 208.206Z" fill="#D8E6FB"/>
<path id="path280" d="M430.253 205.967C430.253 205.349 431.807 204.848 433.722 204.848C435.639 204.848 437.192 205.349 437.192 205.967C437.192 206.587 435.639 207.088 433.722 207.088C431.807 207.088 430.253 206.587 430.253 205.967Z" fill="#D8E6FB"/>
<path id="path282" d="M430.253 203.727C430.253 203.11 431.807 202.609 433.722 202.609C435.639 202.609 437.192 203.11 437.192 203.727C437.192 204.347 435.639 204.848 433.722 204.848C431.807 204.848 430.253 204.347 430.253 203.727Z" fill="#D8E6FB"/>
<path id="path284" d="M430.253 201.491C430.253 200.871 431.807 200.37 433.722 200.37C435.639 200.37 437.192 200.871 437.192 201.491C437.192 202.108 435.639 202.609 433.722 202.609C431.807 202.609 430.253 202.108 430.253 201.491Z" fill="#D8E6FB"/>
<path id="path286" d="M435.781 208.603H431.571V200.985H435.781V208.603Z" fill="#D8E6FB"/>
<path id="path288" d="M399.209 248.072L377.457 222.203L378.257 220.844L399.202 245.75L420.486 220.012L421.294 221.363L399.209 248.072Z" fill="#D8E6FB"/>
<path id="path290" d="M239.498 434.232H193.657V276.934H239.498V434.232Z" fill="#ADC8FE"/>
<path id="path292" d="M239.499 434.232H222.064V276.934H239.499V434.232Z" fill="#8CB4F4"/>
<path id="path294" d="M217.754 305.752H208.473V282.366H217.754V305.752Z" fill="#4786D1"/>
<path id="path296" d="M215.404 305.752H206.123V282.366H215.404V305.752Z" fill="#699AE2"/>
<path id="path298" d="M196.748 335.477L196.692 335.157C196.72 335.146 199.614 334.017 200.065 327.276C200.441 321.681 201.081 318.758 202.205 317.502C202.711 316.938 203.328 316.726 204.043 316.869C204.939 317.052 205.736 318.207 206.659 319.543C208.314 321.944 210.373 324.933 214.015 323.534C219.602 321.387 221.934 312.889 221.956 312.804L222.175 312.921C222.15 313.008 219.776 321.663 214.077 323.852C210.302 325.301 208.189 322.238 206.492 319.776C205.598 318.48 204.827 317.362 204.01 317.198C203.353 317.062 202.809 317.248 202.35 317.762C201.294 318.941 200.661 321.885 200.297 327.307C200.052 330.949 199.108 332.97 198.357 334.028C197.538 335.186 196.78 335.467 196.748 335.477Z" fill="#EBF3FA"/>
<path id="path300" d="M222.064 340.449H208.355V305.753H208.589V340.117H222.064V340.449Z" fill="#EBF3FA"/>
<path id="path302" d="M222.064 336.68H210.647V305.752H210.881V336.349H222.064V336.68Z" fill="#EBF3FA"/>
<path id="path304" d="M222.064 332.34H213.811V305.752H214.045V332.008H222.064V332.34Z" fill="#EBF3FA"/>
<path id="path306" d="M222.064 395.386H201.695V359.81H222.064V360.138H201.928V395.055H222.064V395.386Z" fill="#EBF3FA"/>
<path id="path308" d="M222.064 391.414H204.911V362.788H222.064V363.117H205.145V391.082H222.064V391.414Z" fill="#EBF3FA"/>
<path id="path310" d="M222.064 386.177H208.355V367.254H222.064V367.585H208.589V385.846H222.064V386.177Z" fill="#EBF3FA"/>
<path id="path312" d="M222.064 425.474H199.834V405.922H222.064V425.474Z" fill="#699AE2"/>
<path id="path314" d="M203.211 405.922H202.977V399.687H222.064V400.018H203.211V405.922Z" fill="#699AE2"/>
<path id="path316" d="M208.221 405.922H207.987V402.721H222.064V403.052H208.221V405.922Z" fill="#699AE2"/>
<path id="path318" d="M211.86 284.454C211.86 284.74 211.698 284.971 211.497 284.971C211.295 284.971 211.133 284.74 211.133 284.454C211.133 284.168 211.295 283.937 211.497 283.937C211.698 283.937 211.86 284.168 211.86 284.454Z" fill="#ADC8FE"/>
<path id="path320" d="M213.216 284.454C213.216 284.74 213.051 284.971 212.852 284.971C212.65 284.971 212.486 284.74 212.486 284.454C212.486 284.168 212.65 283.937 212.852 283.937C213.051 283.937 213.216 284.168 213.216 284.454Z" fill="#F99746"/>
<path id="path322" d="M214.438 284.454C214.438 284.74 214.276 284.971 214.074 284.971C213.873 284.971 213.711 284.74 213.711 284.454C213.711 284.168 213.873 283.937 214.074 283.937C214.276 283.937 214.438 284.168 214.438 284.454Z" fill="white"/>
<path id="path324" d="M214.803 291.246H207.638V285.677H214.803V291.246Z" fill="#4786D1"/>
<path id="path326" d="M203.427 291.76C203.427 291.76 204.674 288.082 205.686 286.94C206.698 285.798 209.401 286.076 209.505 286.368C209.826 287.274 207.336 288.684 207.049 289.513C206.761 290.343 207.954 290.26 207.039 291.702C206.265 292.921 204.413 294.084 204.413 294.084L203.427 291.76Z" fill="#9C7248"/>
<path id="path328" d="M204.504 291.342C203.849 289.892 203.653 289.818 203.653 289.818C203.653 289.818 192.806 295.963 191.77 296.475C190.734 296.989 175.257 298.28 175.257 298.28L170.587 312.863C170.587 312.863 191.212 306.182 193.818 304.807C198.122 302.538 205.027 293.65 205.027 293.65C205.027 293.65 205.019 292.481 204.504 291.342Z" fill="#E58638"/>
<path id="path330" d="M177.557 427.676C177.557 427.676 177.792 433.085 178.5 434.357H189.381C189.312 433.816 189.004 432.486 187.643 432.149C185.924 431.723 183.047 430.008 182.005 426.78C180.91 423.386 177.557 427.676 177.557 427.676Z" fill="#163560"/>
<path id="path332" d="M158.215 425.453C158.215 425.453 157.53 433.654 158.461 433.776C158.586 433.792 162.943 433.782 164.128 434.033C166.064 434.444 169.292 434.086 169.292 434.086C169.697 434.11 169.96 433.488 169.755 432.992C169.529 432.451 169.098 431.871 168.276 431.646C166.563 431.177 163.708 429.391 162.706 426.136C161.653 422.715 158.215 425.453 158.215 425.453Z" fill="#163560"/>
<path id="path334" d="M182.672 355.702C182.672 355.702 179.938 369.297 172.096 392.908C169.529 400.643 167.811 406.9 166.662 411.826C166.512 412.462 166.374 413.075 166.245 413.663C166.036 414.612 165.85 415.502 165.683 416.334C165.558 416.973 165.444 417.58 165.338 418.152C164.311 423.834 164.332 426.417 164.332 426.417C164.332 426.417 162.551 427.371 160.425 427.069C159.34 426.913 156.964 425.471 156.964 425.471C156.964 425.471 157.22 421.663 157.737 416.281C157.797 415.69 157.856 415.081 157.92 414.453C158.004 413.613 158.093 412.743 158.19 411.853C158.256 411.254 158.323 410.645 158.392 410.032C159.303 402.016 160.654 392.707 162.458 386.901C166.163 374.986 166.919 342.378 166.919 342.378L182.672 355.702Z" fill="#233862"/>
<path id="path336" d="M187.047 348.764C186.962 356.407 186.553 372.432 184.718 390.907C183.833 399.835 183.355 406.99 183.111 412.531C183.083 413.183 183.056 413.811 183.036 414.416C182.999 415.393 182.971 416.313 182.946 417.172C182.931 417.823 182.916 418.444 182.907 419.032C182.804 424.994 183.021 427.734 183.021 427.734C183.021 427.734 182.866 427.87 182.541 428.042H182.539C181.987 428.336 180.951 428.733 179.388 428.733C178.688 428.733 178.084 428.601 177.6 428.431C176.756 428.14 176.273 427.74 176.273 427.74C176.273 427.74 175.86 424.297 175.394 419.302C175.334 418.703 175.278 418.086 175.22 417.444C175.144 416.596 175.069 415.717 174.992 414.808C174.944 414.198 174.892 413.583 174.843 412.955C174.223 405.019 173.743 395.593 174.261 389.225C174.343 388.207 174.382 387.081 174.384 385.856V385.854C174.389 380.119 173.564 372.4 172.573 365.202C172.573 365.202 172.571 365.181 172.564 365.141C171.543 357.735 170.35 350.895 169.706 347.352C169.415 345.749 169.234 344.821 169.234 344.821L169.777 344.795H169.779L174.066 344.599L185.761 344.061L186.482 344.029L187.064 344.002C187.064 344.002 187.083 345.714 187.047 348.764Z" fill="#2A4E96"/>
<path id="path338" d="M174.944 294.728L177.841 297.775L182.027 296.524C181.969 295.981 181.693 293.734 181.441 291.699C181.426 291.577 181.411 291.458 181.396 291.341C181.182 289.608 180.995 288.119 180.995 288.119L177.085 285.353L175.627 284.319C175.631 284.356 175.739 286.243 175.756 286.518C176.028 291.407 174.944 294.728 174.944 294.728Z" fill="#9C7248"/>
<path id="path340" d="M181.734 293.191C181.643 293.136 176.039 290.788 175.431 291.074C174.822 291.357 174.462 293.032 174.462 293.032L183.114 296.533C183.114 296.533 182.907 293.891 181.734 293.191Z" fill="#E58638"/>
<path id="path342" d="M166.645 346.599C167.593 352.755 187.398 333.442 187.135 329.687C187.105 329.274 187.077 328.858 187.047 328.444C186.681 323.216 186.331 318.099 186.308 314.76C186.288 311.861 186.008 308.901 185.632 306.209C185.289 303.726 184.865 301.47 184.497 299.713C184.238 298.479 183.754 297.389 183.114 296.534C182.659 295.924 182.125 295.436 181.533 295.103C181.374 295.007 181.21 294.928 181.042 294.859C178.657 293.876 175.356 292.659 174.462 293.03C172.037 294.045 170.238 300.103 168.963 307.828C166.577 322.289 166.025 342.59 166.645 346.599Z" fill="#F99746"/>
<path id="path344" d="M176.049 286.603C176.907 288.938 180.107 290.957 181.441 291.699C181.426 291.577 181.411 291.458 181.396 291.341C181.182 289.608 180.995 288.119 180.995 288.119L177.085 285.352C176.221 285.333 175.694 285.643 176.049 286.603Z" fill="#9C7248"/>
<path id="path346" d="M182.896 287.796C182.896 287.796 175.84 290.923 174.537 284.65C173.234 278.381 171.446 274.56 175.896 272.299C180.346 270.039 181.722 272.063 182.515 274.006C183.309 275.948 184.699 286.821 182.896 287.796Z" fill="#9C7248"/>
<path id="path348" d="M182.239 273.401C182.239 273.401 181.789 280.699 180.727 280.381C179.665 280.066 178.7 279.83 178.856 282.03C179.011 284.229 179.062 286.874 175.788 287.263C172.512 287.653 169.228 275.553 170.128 273.282C172.724 266.731 185.991 265.409 182.239 273.401Z" fill="#163560"/>
<path id="path350" d="M186.537 344C184.575 345.007 186.571 341.233 186.537 340.446C186.384 336.985 187.34 332.61 187.047 328.444L175.069 318.276C175.069 318.276 172.226 343.838 186.537 344Z" fill="#E58638"/>
<path id="path352" d="M166.645 346.599C171.759 360.061 172.573 365.202 172.573 365.202C177.023 364.482 184.65 352.053 187.069 348.735C187.069 348.735 187.398 333.442 187.135 329.687L183.437 329.536C183.437 329.536 176.756 331.94 175.022 328.675C173.292 325.41 174.04 309.388 174.04 309.388L168.963 307.827C166.577 322.288 165.273 342.987 166.645 346.599Z" fill="#2A4E96"/>
<path id="path354" d="M196.987 320.804C196.987 320.804 199.421 318.464 199.884 318.26C200.345 318.056 201.859 317.836 201.93 318.006C201.999 318.176 202.206 318.695 201.943 318.87C201.678 319.045 201.35 318.984 201.449 319.106C201.548 319.23 202.542 318.557 202.772 319.278C203.002 319.999 203.203 322.466 202.035 323.216C200.868 323.963 197.986 323.287 197.779 323.375C196.015 324.101 196.987 320.804 196.987 320.804Z" fill="#9C7248"/>
<path id="path356" d="M197.009 320.171C197.009 320.171 185.13 323.041 184.077 322.312C182.397 321.151 184.729 304.029 184.729 304.029C184.729 304.029 184.83 300.15 181.638 299.233C178.866 298.438 176.189 301.387 176.189 301.387C176.189 301.387 173.757 304.48 174.066 307.912C174.757 315.515 175.829 330.978 179.409 333.347C184.027 336.405 197.388 324.869 197.388 324.869C197.388 324.869 197.834 324.095 197.771 322.659C197.715 321.392 197.009 320.171 197.009 320.171Z" fill="#F99746"/>
<path id="path358" d="M173.057 309.086L174.04 309.388C174.04 309.388 176.122 296.594 183.114 296.533C182.659 295.923 182.125 295.436 181.533 295.102C178.972 296.08 174.522 299.188 173.057 309.086Z" fill="#2A4E96"/>
<path id="path360" d="M207.283 291.246L208.472 289.068C208.472 289.068 208.176 288.53 207.569 289.171C207.216 289.545 206.268 290.411 206.268 290.411L207.283 291.246Z" fill="#9C7248"/>
<path id="path362" d="M166.227 413.663C163.608 413.663 161.121 412.966 159.282 412.285C158.887 412.142 158.519 411.991 158.19 411.853C158.256 411.254 158.323 410.645 158.392 410.032C160.175 410.796 163.113 411.834 166.221 411.834C166.369 411.834 166.514 411.832 166.662 411.827C166.512 412.463 166.374 413.075 166.245 413.663C166.24 413.663 166.232 413.663 166.227 413.663Z" fill="#919CB1"/>
<path id="path364" d="M165.338 418.152C162.95 418.054 160.707 417.415 159.012 416.793C158.541 416.615 158.116 416.44 157.737 416.281C157.797 415.69 157.856 415.081 157.92 414.453C159.63 415.195 162.557 416.278 165.683 416.334C165.558 416.973 165.444 417.58 165.338 418.152Z" fill="#919CB1"/>
<path id="path366" d="M183.111 412.531C183.083 413.183 183.056 413.811 183.036 414.416C180.613 415.062 178.25 415.086 176.456 414.956C175.911 414.916 175.418 414.863 174.992 414.808C174.944 414.198 174.891 413.583 174.843 412.955C176.624 413.202 179.851 413.477 183.111 412.531Z" fill="white"/>
<path id="path368" d="M182.946 417.172C182.931 417.823 182.916 418.443 182.907 419.032C180.669 419.551 178.505 419.567 176.838 419.445C176.299 419.405 175.815 419.355 175.394 419.302C175.334 418.703 175.278 418.086 175.22 417.444C176.9 417.675 179.873 417.935 182.946 417.172Z" fill="white"/>
<path id="path370" d="M310.721 431.964L318.694 431.823L337.312 321.687L329.339 321.827L310.721 431.964Z" fill="#8CB4F4"/>
<path id="path372" d="M297.552 434.415H333.301C333.301 431.444 331.606 429.038 329.514 429.038H301.339C299.247 429.038 297.552 431.444 297.552 434.415Z" fill="#8CB4F4"/>
<path id="path374" d="M380.133 383.421L376.699 358.983L376.693 358.932L365.265 277.604L254.2 277.625L269.068 383.445L290.164 383.44H290.363L313.973 383.434H314.044L337.551 383.429H337.711L361.168 383.426H361.379L380.133 383.421Z" fill="#1D3F77"/>
<path id="path376" d="M382.035 381.33L270.971 381.351L256.103 277.625L367.167 277.604L382.035 381.33Z" fill="#2A4E96"/>
<path id="path378" d="M292.279 381.349H292.066L277.239 277.901H277.452L292.279 381.349Z" fill="#C0D8FB"/>
<path id="path380" d="M315.946 381.343H315.734L300.906 277.895H301.119L315.946 381.343Z" fill="#C0D8FB"/>
<path id="path382" d="M339.613 381.338H339.402L324.574 277.89H324.787L339.613 381.338Z" fill="#C0D8FB"/>
<path id="path384" d="M363.283 381.333H363.07L348.241 277.885H348.454L363.283 381.333Z" fill="#C0D8FB"/>
<path id="path386" d="M370.695 302.22L259.631 302.242L259.59 301.957L370.656 301.936L370.695 302.22Z" fill="#C0D8FB"/>
<path id="path388" d="M374.649 329.796L263.584 329.82L263.543 329.536L374.608 329.515L374.649 329.796Z" fill="#C0D8FB"/>
<path id="path390" d="M378.603 357.374L267.536 357.396L267.495 357.112L378.562 357.091L378.603 357.374Z" fill="#C0D8FB"/>
<path id="path392" d="M281.25 305.145L278.527 302.098L280.377 299.048L283.1 302.095L281.25 305.145Z" fill="#C0D8FB"/>
<path id="path394" d="M285.223 332.864L282.499 329.815L284.349 326.767L287.073 329.815L285.223 332.864Z" fill="#C0D8FB"/>
<path id="path396" d="M305.025 305.14L302.301 302.093L304.151 299.042L306.875 302.09L305.025 305.14Z" fill="#C0D8FB"/>
<path id="path398" d="M308.996 332.86L306.273 329.812L308.123 326.761L310.846 329.809L308.996 332.86Z" fill="#C0D8FB"/>
<path id="path400" d="M328.691 305.135L325.968 302.088L327.818 299.038L330.541 302.085L328.691 305.135Z" fill="#C0D8FB"/>
<path id="path402" d="M352.147 305.132L349.423 302.082L351.273 299.032L353.997 302.082L352.147 305.132Z" fill="#C0D8FB"/>
<path id="path404" d="M289.155 360.3L286.432 357.25L288.282 354.202L291.005 357.25L289.155 360.3Z" fill="#C0D8FB"/>
<path id="path406" d="M312.93 360.295L310.206 357.247L312.056 354.197L314.78 357.244L312.93 360.295Z" fill="#C0D8FB"/>
<path id="path408" d="M336.597 360.289L333.874 357.242L335.723 354.192L338.447 357.239L336.597 360.289Z" fill="#C0D8FB"/>
<path id="path410" d="M360.051 360.287L357.328 357.237L359.178 354.187L361.901 357.237L360.051 360.287Z" fill="#C0D8FB"/>
<path id="path412" d="M356.12 332.851L353.397 329.801L355.247 326.752L357.97 329.801L356.12 332.851Z" fill="#C0D8FB"/>
<path id="path414" d="M332.666 332.854L329.942 329.806L331.79 326.756L334.514 329.806L332.666 332.854Z" fill="#C0D8FB"/>
<path id="path416" d="M346.709 317.728L345.397 318.194L343.649 308.318L344.962 307.848L346.709 317.728Z" fill="#ADC8FE"/>
<path id="path418" d="M344.763 304.645L344.765 304.653C344.83 305.416 344.675 306.235 344.168 306.505C343.49 306.866 343.031 306.238 342.859 305.27L342.815 305.018C342.757 304.679 342.204 304.957 342.124 305.286C341.98 305.877 341.977 306.548 342.152 307.194C342.473 308.376 343.341 309.105 344.226 308.933C345.4 308.705 346.142 307.096 345.862 305.511C345.784 305.069 345.635 304.679 345.435 304.358C345.243 304.048 344.724 304.234 344.763 304.645Z" fill="#ADC8FE"/>
<path id="path420" d="M345.43 321.602V321.591C345.365 320.831 345.52 320.009 346.027 319.742C346.705 319.381 347.164 320.007 347.335 320.974L347.38 321.226C347.436 321.565 347.991 321.289 348.071 320.958C348.213 320.367 348.218 319.699 348.043 319.05C347.722 317.868 346.852 317.139 345.967 317.312C344.795 317.539 344.053 319.148 344.333 320.733C344.411 321.175 344.56 321.567 344.76 321.885C344.952 322.198 345.469 322.013 345.43 321.602Z" fill="#ADC8FE"/>
<path id="path422" d="M342.308 283.06C342.308 283.06 340.977 279.141 339.9 277.925C338.821 276.706 335.94 277.002 335.83 277.315C335.486 278.28 338.141 279.78 338.447 280.665C338.754 281.55 337.48 281.46 338.459 282.997C339.282 284.295 341.257 285.535 341.257 285.535L342.308 283.06Z" fill="#9C7248"/>
<path id="path424" d="M341.157 282.612C341.857 281.068 342.066 280.988 342.066 280.988C342.066 280.988 353.627 287.534 354.73 288.079C355.833 288.628 372.325 290.003 372.325 290.003L377.303 305.535C377.303 305.535 355.323 298.42 352.548 296.957C347.959 294.54 340.601 285.072 340.601 285.072C340.601 285.072 340.609 283.826 341.157 282.612Z" fill="#77A4E5"/>
<path id="path426" d="M339.426 281.921C339.413 281.902 339.852 281.078 339.29 280.132C338.876 279.435 338.783 280.76 338.075 280.429C337.489 280.153 335.91 279.819 336.931 280.988C337.87 282.064 338.797 283.508 339.145 283.845C339.492 284.181 339.426 281.921 339.426 281.921Z" fill="#9C7248"/>
<path id="path428" d="M369.876 427.835C369.876 427.835 369.626 433.596 368.872 434.95H357.276C357.349 434.375 357.677 432.958 359.128 432.597C360.959 432.147 364.026 430.318 365.135 426.881C366.303 423.264 369.876 427.835 369.876 427.835Z" fill="#163560"/>
<path id="path430" d="M390.455 427.032C390.455 427.032 391.22 434.203 390.227 434.333C390.094 434.349 385.45 434.338 384.186 434.606C382.125 435.043 378.685 434.661 378.685 434.661C378.254 434.688 377.972 434.025 378.19 433.498C378.431 432.92 378.89 432.303 379.766 432.064C381.593 431.564 384.636 429.661 385.702 426.195C386.826 422.551 390.455 427.032 390.455 427.032Z" fill="#163560"/>
<path id="path432" d="M390.454 427.032C390.454 427.032 389.381 427.613 387.676 427.817C386.532 427.954 385.63 427.75 385.13 427.589C384.852 427.493 384.697 427.414 384.697 427.414C384.697 427.414 384.501 423.916 382.913 416.535C382.793 415.976 382.666 415.396 382.528 414.792C382.349 413.999 382.157 413.173 381.946 412.306C381.809 411.739 381.668 411.156 381.516 410.557C380.197 405.286 378.328 398.725 375.696 390.804C374.826 388.18 374.012 385.676 373.256 383.291C366.762 362.788 364.423 351.165 364.423 351.165L364.707 350.926L376.228 341.187L378.164 339.552H378.166L381.214 336.974C381.214 336.974 381.257 338.824 381.373 341.823C381.373 341.866 381.375 341.908 381.376 341.953C381.761 352.021 382.943 374.676 385.965 384.401C387.805 390.314 388.905 399.978 389.554 408.607C389.599 409.213 389.644 409.82 389.685 410.414C389.748 411.318 389.806 412.2 389.858 413.064C389.898 413.673 389.933 414.278 389.965 414.869C390.359 421.838 390.454 427.032 390.454 427.032Z" fill="#E58638"/>
<path id="path434" d="M378.745 339.58C378.745 339.58 378.555 340.568 378.243 342.277C377.554 346.061 376.276 353.378 375.186 361.288C374.131 368.957 373.25 377.186 373.256 383.291C373.259 384.59 373.299 385.793 373.386 386.874C373.917 393.385 373.325 402.97 372.552 411.273C372.492 411.885 372.434 412.494 372.375 413.096C372.285 414.007 372.196 414.901 372.102 415.764C372.037 416.382 371.973 416.986 371.91 417.572C371.227 423.77 370.598 428.204 370.598 428.204C370.598 428.204 370.325 428.291 369.846 428.4C369.161 428.564 368.054 428.773 366.719 428.858C365.944 428.906 365.095 428.516 364.567 428.217C364.251 428.039 364.052 427.893 364.052 427.893C364.052 427.893 364.321 424.523 364.143 417.14C364.138 416.851 364.128 416.557 364.119 416.257L364.093 415.335C364.067 414.522 364.039 413.668 363.999 412.773C363.977 412.187 363.951 411.585 363.923 410.963C363.652 405.167 363.15 397.787 362.245 388.671C360.291 368.989 359.852 351.918 359.76 343.78C359.725 340.528 359.744 338.705 359.744 338.705L360.363 338.734L361.134 338.769L373.594 339.341L378.163 339.553H378.165L378.745 339.58Z" fill="#F99746"/>
<path id="path436" d="M372.661 286.222L369.574 289.468L365.11 288.133C365.172 287.555 365.467 285.162 365.736 282.994C365.753 282.865 365.768 282.737 365.782 282.613C366.012 280.766 366.212 279.181 366.212 279.181L370.38 276.232L371.933 275.135C371.929 275.172 371.812 277.181 371.797 277.475C371.506 282.682 372.661 286.222 372.661 286.222Z" fill="#9C7248"/>
<path id="path438" d="M365.424 284.584C365.521 284.523 371.493 282.022 372.142 282.326C372.792 282.631 373.175 284.412 373.175 284.412L363.955 288.14C363.955 288.14 364.175 285.329 365.424 284.584Z" fill="#77A4E5"/>
<path id="path440" d="M381.506 341.472C380.496 348.028 359.387 327.458 359.669 323.457C359.701 323.017 359.731 322.575 359.762 322.135C360.151 316.564 360.526 311.113 360.55 307.557C360.571 304.47 360.871 301.316 361.271 298.449C361.637 295.802 362.088 293.401 362.48 291.53C362.755 290.213 363.272 289.052 363.955 288.14C364.439 287.494 365.01 286.974 365.639 286.619C365.809 286.516 365.984 286.431 366.162 286.36C368.704 285.313 372.221 284.017 373.175 284.412C375.759 285.49 377.678 291.946 379.036 300.174C381.579 315.576 382.167 337.203 381.506 341.472Z" fill="#ADC8FE"/>
<path id="path442" d="M371.483 277.567C370.569 280.053 367.158 282.202 365.736 282.994C365.753 282.864 365.768 282.737 365.782 282.612C366.012 280.765 366.212 279.181 366.212 279.181L370.38 276.231C371.3 276.213 371.86 276.544 371.483 277.567Z" fill="#9C7248"/>
<path id="path444" d="M364.186 278.836C364.186 278.836 371.705 282.165 373.094 275.487C374.483 268.806 376.388 264.738 371.645 262.329C366.904 259.921 365.437 262.078 364.591 264.147C363.746 266.214 362.266 277.797 364.186 278.836Z" fill="#9C7248"/>
<path id="path446" d="M364.886 263.503C364.886 263.503 365.366 271.276 366.499 270.937C367.631 270.6 368.657 270.351 368.493 272.694C368.327 275.036 366.757 277.742 370.246 278.155C373.735 278.571 378.753 265.796 377.794 263.376C375.029 256.396 360.89 254.989 364.886 263.503Z" fill="#CE6719"/>
<path id="path448" d="M360.305 338.705C362.396 339.776 360.27 335.756 360.305 334.918C360.468 331.232 359.451 326.571 359.762 322.135L372.528 311.301C372.528 311.301 375.556 338.533 360.305 338.705Z" fill="#77A4E5"/>
<path id="path450" d="M381.506 341.472C376.055 355.811 375.187 361.288 375.187 361.288C370.444 360.52 362.316 347.28 359.738 343.748C359.738 343.748 359.387 327.458 359.669 323.457L363.61 323.295C363.61 323.295 370.731 325.858 372.577 322.381C374.423 318.904 373.623 301.836 373.623 301.836L379.036 300.174C381.578 315.576 382.969 337.624 381.506 341.472Z" fill="#F99746"/>
<path id="path452" d="M349.169 313.997C349.169 313.997 346.575 311.506 346.082 311.288C345.591 311.071 343.976 310.835 343.901 311.015C343.827 311.195 343.607 311.747 343.888 311.935C344.17 312.123 344.521 312.057 344.415 312.187C344.31 312.319 343.25 311.601 343.005 312.37C342.761 313.138 342.544 315.767 343.789 316.565C345.033 317.363 348.105 316.642 348.327 316.735C350.205 317.508 349.169 313.997 349.169 313.997Z" fill="#9C7248"/>
<path id="path454" d="M349.145 313.321C349.145 313.321 361.806 316.379 362.928 315.603C364.718 314.365 362.232 296.128 362.232 296.128C362.232 296.128 362.125 291.994 365.526 291.019C368.481 290.174 371.333 293.316 371.333 293.316C371.333 293.316 373.926 296.61 373.594 300.262C372.86 308.361 371.718 324.833 367.903 327.358C362.98 330.615 348.74 318.327 348.74 318.327C348.74 318.327 348.266 317.503 348.335 315.971C348.392 314.622 349.145 313.321 349.145 313.321Z" fill="#ADC8FE"/>
<path id="path456" d="M374.672 301.512L373.621 301.835C373.621 301.835 371.406 288.207 363.955 288.14C364.438 287.494 365.009 286.974 365.638 286.619C368.367 287.658 373.11 290.97 374.672 301.512Z" fill="#F99746"/>
<path id="path458" d="M372.553 411.273C372.493 411.885 372.435 412.494 372.375 413.096C369.82 413.607 367.328 413.395 365.474 413.077C364.92 412.979 364.423 412.871 364 412.773C363.977 412.187 363.951 411.585 363.923 410.963C365.702 411.402 369.118 412.06 372.553 411.273Z" fill="white"/>
<path id="path460" d="M364.093 415.335L364.119 416.257L364.143 417.14C364.571 417.238 365.066 417.344 365.626 417.442C367.328 417.736 369.576 417.943 371.911 417.572C371.975 416.986 372.038 416.382 372.104 415.764C368.891 416.35 365.773 415.748 364.093 415.335Z" fill="white"/>
<path id="path462" d="M381.946 412.306C381.81 411.739 381.668 411.156 381.517 410.557C383.331 410.48 386.504 410.152 389.554 408.607C389.599 409.214 389.644 409.82 389.685 410.414C387.303 411.559 384.897 412.02 383.075 412.213C382.668 412.258 382.289 412.282 381.946 412.306Z" fill="#F2C39C"/>
<path id="path464" d="M382.913 416.536C382.793 415.976 382.666 415.396 382.528 414.792C384.283 414.694 387.093 414.36 389.859 413.064C389.899 413.674 389.934 414.278 389.966 414.869C387.739 415.86 385.523 416.276 383.822 416.453C383.499 416.49 383.195 416.514 382.913 416.536Z" fill="#F2C39C"/>
<path id="path466" d="M80.2863 347.771C80.2863 347.771 81.2764 345.632 81.9723 345.041C82.6682 344.45 84.3318 344.941 84.3793 345.137C84.5262 345.736 82.8962 346.319 82.6692 346.801C82.4424 347.283 83.1889 347.371 82.5352 348.16C81.983 348.828 80.764 349.332 80.764 349.332L80.2863 347.771Z" fill="#FFB27D"/>
<path id="path468" d="M80.9808 347.638C80.6576 346.66 80.5402 346.589 80.5402 346.589C80.5402 346.589 73.4384 349.133 72.7649 349.332C72.0914 349.528 62.3949 348.51 62.3949 348.51L58.641 357.022C58.641 357.022 71.8521 355.297 73.5517 354.748C76.3601 353.844 81.171 349.133 81.171 349.133C81.171 349.133 81.2346 348.407 80.9808 347.638Z" fill="#77A4E5"/>
<path id="path470" d="M82.028 347.426C82.0371 347.415 82.4239 346.909 82.8043 346.419C83.0844 346.056 83.2835 345.557 83.4037 345.42C83.6875 345.096 83.8206 345.973 83.353 346.962C82.957 347.797 82.3085 348.42 82.0877 348.579C81.867 348.735 82.028 347.426 82.028 347.426Z" fill="#FFB27D"/>
<path id="path472" d="M100.522 433.193L105.213 433.109L116.17 368.298L111.479 368.38L100.522 433.193Z" fill="#8CB4F4"/>
<path id="path474" d="M92.7718 434.635H113.81C113.81 432.889 112.812 431.471 111.581 431.471H95.0004C93.7695 431.471 92.7718 432.889 92.7718 434.635Z" fill="#8CB4F4"/>
<path id="path476" d="M141.37 404.626L139.349 390.245L139.345 390.213L132.62 342.354L67.2599 342.367L76.0093 404.64L88.4241 404.637H88.541L102.435 404.634H102.478L116.311 404.632H116.405L130.209 404.629H130.334L141.37 404.626Z" fill="#1D3F77"/>
<path id="path478" d="M142.489 403.394L77.1287 403.407L68.3793 342.367L133.74 342.354L142.489 403.394Z" fill="#2A4E96"/>
<path id="path480" d="M89.669 403.405H89.5439L80.8178 342.529H80.9429L89.669 403.405Z" fill="#C0D8FB"/>
<path id="path482" d="M103.597 403.402H103.472L94.746 342.526H94.871L103.597 403.402Z" fill="#C0D8FB"/>
<path id="path484" d="M117.525 403.399H117.4L108.674 342.524H108.799L117.525 403.399Z" fill="#C0D8FB"/>
<path id="path486" d="M131.453 403.397H131.328L122.602 342.52H122.727L131.453 403.397Z" fill="#C0D8FB"/>
<path id="path488" d="M135.816 356.839L70.4558 356.852L70.4319 356.685L135.792 356.674L135.816 356.839Z" fill="#C0D8FB"/>
<path id="path490" d="M138.142 373.07L72.782 373.083L72.7581 372.917L138.118 372.903L138.142 373.07Z" fill="#C0D8FB"/>
<path id="path492" d="M140.468 389.299L75.1081 389.312L75.0842 389.145L140.445 389.132L140.468 389.299Z" fill="#C0D8FB"/>
<path id="path494" d="M83.1785 358.562L81.5757 356.767L82.6642 354.973L84.2669 356.767L83.1785 358.562Z" fill="#C0D8FB"/>
<path id="path496" d="M85.5167 374.875L83.9138 373.081L85.0022 371.284L86.605 373.078L85.5167 374.875Z" fill="#C0D8FB"/>
<path id="path498" d="M97.1691 358.559L95.5664 356.765L96.6548 354.971L98.2575 356.765L97.1691 358.559Z" fill="#C0D8FB"/>
<path id="path500" d="M99.5071 374.872L97.9045 373.078L98.9927 371.281L100.595 373.076L99.5071 374.872Z" fill="#C0D8FB"/>
<path id="path502" d="M111.097 358.556L109.494 356.762L110.583 354.968L112.185 356.762L111.097 358.556Z" fill="#C0D8FB"/>
<path id="path504" d="M124.9 358.554L123.298 356.759L124.386 354.965L125.989 356.759L124.9 358.554Z" fill="#C0D8FB"/>
<path id="path506" d="M87.8308 391.019L86.2281 389.225L87.3164 387.431L88.919 389.225L87.8308 391.019Z" fill="#C0D8FB"/>
<path id="path508" d="M101.821 391.016L100.219 389.222L101.307 387.428L102.91 389.222L101.821 391.016Z" fill="#C0D8FB"/>
<path id="path510" d="M115.749 391.013L114.147 389.219L115.235 387.425L116.838 389.219L115.749 391.013Z" fill="#C0D8FB"/>
<path id="path512" d="M129.553 391.011L127.95 389.217L129.038 387.423L130.641 389.217L129.553 391.011Z" fill="#C0D8FB"/>
<path id="path514" d="M127.239 374.864L125.636 373.073L126.724 371.276L128.327 373.07L127.239 374.864Z" fill="#C0D8FB"/>
<path id="path516" d="M113.436 374.87L111.833 373.073L112.921 371.279L114.524 373.073L113.436 374.87Z" fill="#C0D8FB"/>
<path id="path518" d="M77.0042 365.966L77.7767 366.241L78.8048 360.427L78.0324 360.154L77.0042 365.966Z" fill="#ADC8FE"/>
<path id="path520" d="M78.1483 358.267L78.1479 358.273C78.1095 358.72 78.2008 359.203 78.4992 359.362C78.8983 359.574 79.1684 359.205 79.2692 358.636L79.2954 358.487C79.3295 358.289 79.6547 358.45 79.7019 358.644C79.7865 358.993 79.7893 359.386 79.6859 359.767C79.4972 360.464 78.9855 360.891 78.4649 360.79C77.7744 360.658 77.3372 359.709 77.5022 358.779C77.5484 358.516 77.6361 358.286 77.7531 358.098C77.8664 357.915 78.1716 358.026 78.1483 358.267Z" fill="#ADC8FE"/>
<path id="path522" d="M77.7565 368.247L77.7568 368.242C77.7953 367.791 77.7038 367.309 77.4055 367.15C77.0065 366.938 76.7364 367.306 76.6356 367.876L76.6094 368.025C76.5753 368.226 76.2499 368.062 76.2029 367.868C76.1183 367.518 76.1155 367.126 76.2189 366.745C76.4077 366.048 76.9193 365.621 77.4399 365.722C78.1303 365.854 78.5673 366.803 78.4025 367.736C78.3564 367.995 78.2685 368.226 78.1514 368.414C78.0381 368.597 77.7331 368.488 77.7565 368.247Z" fill="#ADC8FE"/>
<path id="path524" d="M63.3703 430.763C63.3703 430.763 63.5183 434.153 63.9618 434.95H70.7859C70.7428 434.611 70.5496 433.779 69.6963 433.567C68.6179 433.299 66.8132 432.224 66.1606 430.202C65.4733 428.074 63.3703 430.763 63.3703 430.763Z" fill="#163560"/>
<path id="path526" d="M51.2607 430.289C51.2607 430.289 50.8106 434.51 51.3949 434.587C51.4725 434.598 54.206 434.59 54.9492 434.749C56.1627 435.006 58.1872 434.781 58.1872 434.781C58.4407 434.797 58.6069 434.407 58.4777 434.097C58.336 433.755 58.0659 433.392 57.5507 433.252C56.476 432.958 54.685 431.837 54.0572 429.799C53.3966 427.652 51.2607 430.289 51.2607 430.289Z" fill="#163560"/>
<path id="path528" d="M66.5801 385.644C66.5801 385.644 64.8628 394.17 59.9464 408.967C58.3548 413.761 57.2363 417.712 56.4559 420.858C56.3627 421.223 56.2765 421.578 56.1949 421.923C56.0645 422.469 55.9457 422.988 55.836 423.481C55.7544 423.844 55.6799 424.194 55.6077 424.533C54.7572 428.588 54.6477 430.517 54.6477 430.517C54.6477 430.517 53.7692 430.978 52.8652 430.864C52.01 430.75 51.2598 430.292 51.2598 430.292C51.2598 430.292 51.3086 427.544 51.5137 423.751C51.5326 423.407 51.551 423.057 51.5719 422.697C51.5999 422.206 51.6326 421.703 51.6653 421.189C51.6884 420.839 51.7142 420.487 51.7375 420.132C52.115 414.887 52.7696 408.843 53.9021 405.204C56.2252 397.734 56.6982 377.292 56.6982 377.292L66.5801 385.644Z" fill="#E58638"/>
<path id="path530" d="M67.8612 407.714C67.2695 413.692 66.9687 418.399 66.8267 421.963C66.8105 422.331 66.7987 422.689 66.7871 423.036C66.7685 423.593 66.7545 424.115 66.7405 424.605C66.7335 424.976 66.7265 425.328 66.7218 425.662C66.6706 429.179 66.7987 430.798 66.7987 430.798C66.7987 430.798 65.9738 431.24 64.972 431.24C63.7441 431.24 62.9448 430.978 62.9448 430.978C62.9448 430.978 62.6465 428.877 62.2947 425.805V425.803C62.2551 425.458 62.2155 425.103 62.1759 424.74C62.1224 424.25 62.0688 423.744 62.015 423.224C61.9779 422.877 61.943 422.525 61.9056 422.164C61.4 417.039 60.9665 410.798 61.3044 406.659C61.9639 398.547 58.1518 378.826 58.1518 378.826L69.3338 378.312C69.3338 378.312 69.4691 391.509 67.8612 407.714Z" fill="#F99746"/>
<path id="path532" d="M61.7317 347.426L63.5487 349.334L66.175 348.55C66.1386 348.211 65.9651 346.801 65.8072 345.526C65.7977 345.449 65.7882 345.375 65.7792 345.301C65.6441 344.214 65.5272 343.282 65.5272 343.282L63.0746 341.546L62.1601 340.899C62.1624 340.923 62.2311 342.105 62.2404 342.277C62.4121 345.343 61.7317 347.426 61.7317 347.426Z" fill="#FFB27D"/>
<path id="path534" d="M65.9912 346.462C65.9337 346.427 62.4189 344.954 62.0369 345.134C61.6552 345.311 61.4291 346.361 61.4291 346.361L66.8556 348.555C66.8556 348.555 66.7255 346.899 65.9912 346.462Z" fill="#77A4E5"/>
<path id="path536" d="M56.5268 379.939C57.1217 383.797 69.5424 371.692 69.377 369.339C69.3589 369.079 69.3406 368.82 69.3223 368.56C69.0933 365.282 68.8734 362.075 68.8581 359.979C68.846 358.164 68.6699 356.309 68.4349 354.621C68.2193 353.063 67.9537 351.65 67.7232 350.551C67.5608 349.774 67.2573 349.09 66.8554 348.555C66.57 348.173 66.2347 347.869 65.8644 347.659C65.7643 347.598 65.6611 347.548 65.5566 347.506C64.0603 346.891 61.9907 346.128 61.4294 346.361C59.909 346.994 58.7801 350.794 57.9804 355.636C56.4845 364.699 56.1384 377.427 56.5268 379.939Z" fill="#ADC8FE"/>
<path id="path538" d="M62.4246 342.333C62.9632 343.796 64.9703 345.06 65.8073 345.526C65.7978 345.449 65.7883 345.375 65.7793 345.301C65.6442 344.214 65.5273 343.282 65.5273 343.282L63.0746 341.546C62.5324 341.535 62.2023 341.729 62.4246 342.333Z" fill="#FCA56B"/>
<path id="path540" d="M66.7193 343.078C66.7193 343.078 62.2941 345.039 61.4771 341.109C60.6599 337.176 59.5382 334.783 62.329 333.365C65.1197 331.948 65.9829 333.217 66.4805 334.433C66.978 335.652 67.8492 342.468 66.7193 343.078Z" fill="#FFB27D"/>
<path id="path542" d="M66.3065 334.054C66.3065 334.054 66.0243 338.63 65.3581 338.432C64.6917 338.233 64.2262 338.079 64.1849 339.463C64.142 340.899 64.3651 342.552 62.3116 342.796C60.2581 343.04 58.1473 335.406 58.7114 333.98C60.3391 329.873 68.6592 329.046 66.3065 334.054Z" fill="#163560"/>
<path id="path544" d="M69.0025 378.312C67.7722 378.943 69.0236 376.576 69.0025 376.083C68.9068 373.913 69.5062 371.17 69.3225 368.56L61.8097 362.184C61.8097 362.184 60.0272 378.209 69.0025 378.312Z" fill="#77A4E5"/>
<path id="path546" d="M56.5269 379.939C59.734 388.379 60.2449 391.602 60.2449 391.602C63.0362 391.149 67.8193 383.358 69.3365 381.28C69.3365 381.28 69.5426 371.692 69.3772 369.339L67.0586 369.244C67.0586 369.244 62.8678 370.751 61.7814 368.706C60.695 366.657 61.1654 356.614 61.1654 356.614L57.9805 355.636C56.4845 364.699 55.666 377.676 56.5269 379.939Z" fill="#F99746"/>
<path id="path548" d="M75.5568 363.769C75.5568 363.769 77.0836 362.303 77.3731 362.176C77.6628 362.049 78.6122 361.911 78.6561 362.017C78.7004 362.123 78.8303 362.446 78.6643 362.558C78.4986 362.666 78.2921 362.629 78.3541 362.706C78.4159 362.783 79.0401 362.362 79.184 362.812C79.3279 363.265 79.4547 364.813 78.7224 365.282C77.9901 365.751 76.1825 365.327 76.0522 365.38C74.9468 365.836 75.5568 363.769 75.5568 363.769Z" fill="#FFB27D"/>
<path id="path550" d="M75.5712 363.374C75.5712 363.374 68.1199 365.171 67.4597 364.715C66.4057 363.986 67.8687 353.254 67.8687 353.254C67.8687 353.254 67.9314 350.823 65.9301 350.248C64.1911 349.75 62.5131 351.6 62.5131 351.6C62.5131 351.6 60.9871 353.537 61.182 355.689C61.6141 360.454 62.2865 370.147 64.5319 371.634C67.4281 373.55 75.8087 366.318 75.8087 366.318C75.8087 366.318 76.0877 365.833 76.0482 364.932C76.0131 364.14 75.5712 363.374 75.5712 363.374Z" fill="#ADC8FE"/>
<path id="path552" d="M60.5479 356.424L61.1654 356.614C61.1654 356.614 62.4704 348.595 66.8555 348.555C66.5701 348.174 66.2348 347.869 65.8645 347.659C64.2577 348.272 61.4674 350.219 60.5479 356.424Z" fill="#F99746"/>
<path id="path554" d="M66.8266 421.963C66.8103 422.331 66.7986 422.689 66.787 423.036C65.2818 423.431 63.7999 423.415 62.691 423.309C62.4461 423.285 62.2202 423.256 62.0151 423.224C61.9779 422.877 61.943 422.525 61.9057 422.164C63.0124 422.331 64.923 422.509 66.8266 421.963Z" fill="white"/>
<path id="path556" d="M66.7404 424.605C66.7335 424.976 66.7264 425.328 66.7217 425.662C65.3098 425.993 63.9304 425.975 62.8843 425.872C62.6721 425.853 62.4765 425.829 62.2947 425.805V425.803C62.2551 425.458 62.2155 425.103 62.176 424.74C63.236 424.896 64.9742 425.045 66.7404 424.605Z" fill="white"/>
<path id="path558" d="M55.7684 421.931C54.4817 421.931 53.2753 421.674 52.3429 421.404C52.0958 421.329 51.8699 421.258 51.665 421.189C51.6881 420.839 51.7139 420.487 51.7372 420.132C52.6744 420.458 54.1689 420.882 55.7802 420.882C56.0034 420.882 56.2289 420.874 56.4555 420.858C56.3624 421.223 56.2761 421.578 56.1946 421.923C56.0518 421.928 55.9095 421.931 55.7684 421.931Z" fill="#F2C39C"/>
<path id="path560" d="M55.6071 424.533C54.3629 424.515 53.1955 424.268 52.2915 424.003C52.0025 423.916 51.7413 423.831 51.513 423.751C51.5319 423.407 51.5504 423.057 51.5713 422.697C52.497 423.023 54.0417 423.481 55.712 423.481C55.7531 423.481 55.7941 423.481 55.8354 423.481C55.7538 423.844 55.6793 424.194 55.6071 424.533Z" fill="#F2C39C"/>
<path id="path562" d="M433.659 204.957C427.544 203.664 420.753 197.76 413.478 187.409C407.667 179.141 401.533 168.029 395.246 154.382C384.903 131.934 377.517 109.851 376.966 108.192C369.514 108.457 360.026 104.949 348.779 97.7618C339.758 91.998 329.584 83.8652 318.543 73.5938C299.747 56.1064 284.749 38.2322 284.599 38.052L284.749 37.8003C284.898 37.9778 299.887 55.8414 318.673 73.3182C329.704 83.5816 339.866 91.7039 348.874 97.4623C360.129 104.652 369.606 108.152 377.035 107.858L377.112 107.856L377.145 107.954C377.22 108.182 384.748 130.995 395.442 154.204C401.72 167.83 407.844 178.923 413.644 187.175C420.883 197.476 427.628 203.348 433.694 204.631L433.659 204.957Z" fill="#ADC8FE"/>
<path id="path564" d="M396.63 201.149C388.645 199.405 380.006 193.254 370.952 182.861C363.717 174.556 356.202 163.535 348.614 150.11C336.08 127.927 327.457 106.35 326.881 104.896C311.712 102.855 296.859 97.8678 282.734 90.0714C271.419 83.8254 260.54 75.7721 250.404 66.134C236.59 53.0059 226.962 39.4034 223.802 34.0478L223.979 33.8358C227.136 39.1808 236.747 52.7568 250.54 65.8664C260.663 75.4885 271.525 83.5286 282.824 89.7641C296.947 97.5604 311.798 102.542 326.963 104.575L327.024 104.583L327.054 104.66C327.142 104.882 335.895 127.071 348.799 149.906C356.374 163.312 363.878 174.315 371.102 182.607C380.12 192.96 388.721 199.09 396.666 200.823L396.63 201.149Z" fill="#ADC8FE"/>
<path id="path566" d="M363.934 204.96C353.236 204.469 342.008 198.896 330.558 188.394C321.406 179.999 312.091 168.453 302.873 154.074C287.632 130.298 277.664 106.47 277.015 104.903C266.759 104.506 254.407 100.541 240.305 93.1241C229.002 87.1802 216.555 79.0155 203.309 68.8554C180.757 51.5615 163.475 34.2491 163.301 34.0768L163.438 33.8065C163.609 33.9787 180.882 51.2806 203.421 68.5666C216.658 78.7161 229.096 86.8754 240.387 92.8141C254.495 100.234 266.843 104.191 277.086 104.575L277.151 104.577L277.184 104.657C277.283 104.901 287.375 129.405 303.049 153.857C312.252 168.212 321.551 179.739 330.687 188.119C342.099 198.586 353.288 204.141 363.941 204.628L363.934 204.96Z" fill="#ADC8FE"/>
<path id="path568" d="M491.039 435.515H4.69069C4.39762 435.515 4.15776 435.173 4.15776 434.757V434.561C4.15776 434.145 4.39762 433.803 4.69069 433.803H491.039C491.332 433.803 491.573 434.145 491.573 434.561V434.757C491.573 435.173 491.332 435.515 491.039 435.515Z" fill="#2E3552"/>
</g>
</g>
</svg>
