<svg width="100" height="100" viewBox="0 0 100 100" fill="none" xmlns="http://www.w3.org/2000/svg">
<g id="electric-tower 1" clip-path="url(#clip0)">
<path id="Vector" d="M96.582 91.0146H74.5887L60.765 62.7631V58.7029H84.5687V61.6312H83.1039C82.2947 61.6312 81.6391 62.2871 81.6391 63.0961C81.6391 63.9051 82.2947 64.5609 83.1039 64.5609H84.5687V67.4906H83.1039C82.2947 67.4906 81.6391 68.1465 81.6391 68.9555C81.6391 69.7645 82.2947 70.4203 83.1039 70.4203H88.9633C89.7725 70.4203 90.4281 69.7645 90.4281 68.9555C90.4281 68.1465 89.7725 67.4906 88.9633 67.4906H87.4984V64.5609H88.9633C89.7725 64.5609 90.4281 63.9051 90.4281 63.0961C90.4281 62.2871 89.7725 61.6312 88.9633 61.6312H87.4984C87.4988 60.0455 87.4979 56.3061 87.4979 54.7449C87.4979 52.3371 86.1 50.0984 83.9365 49.0414L60.765 37.7215V34.2275H69.3941C70.2033 34.2275 70.859 33.5717 70.859 32.7627C70.859 31.9537 70.2033 31.2978 69.3941 31.2978H60.765V16.5068L82.6506 27.1982C83.8154 27.7674 84.5682 28.9729 84.5682 30.2693V31.2978H76.2342C75.425 31.2978 74.7693 31.9537 74.7693 32.7627C74.7693 33.5717 75.425 34.2275 76.2342 34.2275H84.5687V37.157H83.1039C82.2947 37.157 81.6391 37.8129 81.6391 38.6219C81.6391 39.4309 82.2947 40.0867 83.1039 40.0867H88.9633C89.7725 40.0867 90.4281 39.4309 90.4281 38.6219C90.4281 37.8129 89.7725 37.157 88.9633 37.157H87.4984V32.7627C87.4984 32.7588 87.4979 32.7553 87.4979 32.7514V30.2693C87.4979 27.8615 86.1 25.6229 83.9365 24.5658L60.4117 13.0736L55.7303 2.93086L65.1377 2.93066C65.4066 2.93066 65.6256 3.14961 65.6258 3.41875L65.6268 5.86582H64.1625C63.3533 5.86582 62.6977 6.52168 62.6977 7.33066C62.6977 8.13965 63.3533 8.79551 64.1625 8.79551H70.0219C70.8311 8.79551 71.4867 8.13965 71.4867 7.33066C71.4867 6.52168 70.8311 5.86582 70.0219 5.86582H68.5564L68.5555 3.41758C68.5549 1.53359 67.0215 0.000781269 65.1375 0.000976581L34.8635 0.00156252C32.9789 0.00175783 31.4457 1.53516 31.4457 3.41953V5.86094H29.9809C29.1719 5.86094 28.516 6.5168 28.516 7.32578C28.516 8.13477 29.1719 8.79062 29.9809 8.79062H35.8402C36.6492 8.79062 37.3051 8.13477 37.3051 7.32578C37.3051 6.5168 36.6492 5.86094 35.8402 5.86094H34.3754V3.41953C34.3754 3.15039 34.5945 2.93125 34.8637 2.93125L44.2697 2.93105L39.5887 13.073L30.1584 17.6803C29.4314 18.0354 29.1301 18.9125 29.4854 19.6395C29.8404 20.3662 30.7174 20.6678 31.4445 20.3125L39.2336 16.507V31.2977H15.4318V30.2695C15.4318 28.973 16.1846 27.7676 17.3494 27.1984L25.3027 23.3129C26.0297 22.9578 26.3311 22.0807 25.976 21.3537C25.6209 20.6268 24.7438 20.3254 24.0168 20.6805L16.0633 24.5664C13.9 25.6234 12.5021 27.8621 12.5021 30.2697V32.7621V32.7625V37.1568H11.0373C10.2283 37.1568 9.57246 37.8127 9.57246 38.6217C9.57246 39.4307 10.2283 40.0865 11.0373 40.0865H16.8967C17.7057 40.0865 18.3615 39.4307 18.3615 38.6217C18.3615 37.8127 17.7057 37.1568 16.8967 37.1568H15.4318V34.2273H39.2338V37.7219L16.0633 49.042C13.9 50.099 12.5021 52.3377 12.5021 54.7453V61.6312H11.0373C10.2283 61.6312 9.57246 62.2871 9.57246 63.0961C9.57246 63.9051 10.2283 64.5609 11.0373 64.5609H12.5021V67.4906H11.0373C10.2283 67.4906 9.57246 68.1465 9.57246 68.9555C9.57246 69.7645 10.2283 70.4203 11.0373 70.4203H16.8967C17.7057 70.4203 18.3615 69.7645 18.3615 68.9555C18.3615 68.1465 17.7057 67.4906 16.8967 67.4906H15.4318V64.5609H16.8967C17.7057 64.5609 18.3615 63.9051 18.3615 63.0961C18.3615 62.2871 17.7057 61.6312 16.8967 61.6312H15.4318V58.7029H26.01C26.8189 58.7029 27.4748 58.0471 27.4748 57.2381C27.4748 56.4291 26.8189 55.7732 26.01 55.7732H15.4318V54.7453C15.4318 53.4488 16.1846 52.2434 17.3494 51.6742L39.2336 40.9826V55.7732H32.8748C32.0658 55.7732 31.41 56.4291 31.41 57.2381C31.41 58.0471 32.0658 58.7029 32.8748 58.7029H39.2336V62.7654L25.4113 91.0146H3.41797C1.5334 91.0146 0 92.548 0 94.4326V96.5811C0 98.4656 1.5334 99.999 3.41797 99.999H96.582C98.4666 99.999 100 98.4656 100 96.5811V94.4326C100 92.548 98.4666 91.0146 96.582 91.0146ZM67.941 91.0146L62.1637 84.6332C61.6205 84.0332 60.6943 83.9875 60.0947 84.5305C59.4949 85.0734 59.4488 85.9998 59.992 86.5996L63.9893 91.0148H36.0113L50 75.5615L55.3955 81.5219C55.6846 81.8414 56.0826 82.0037 56.482 82.0037C56.8326 82.0037 57.1844 81.8785 57.4646 81.6248C58.0645 81.0818 58.1105 80.1557 57.5676 79.5559L51.9758 73.3787L58.9357 65.6902L71.327 91.0146H67.941ZM57.8354 58.7029V61.6391H42.1633V58.7029H57.8354ZM44.2355 55.7732L50 50.009L55.7647 55.7734H44.2355V55.7732ZM52.0715 47.9373L57.8354 42.1736V53.7012L52.0715 47.9373ZM57.8354 34.2275V37.1717H42.1633V34.2275H57.8354ZM44.2359 31.2978L50 25.534L55.7641 31.2978H44.2359ZM55.7647 40.1014L50 45.8658L44.2354 40.1014H55.7647ZM52.0715 23.4625L57.8354 17.6988V29.2264L52.0715 23.4625ZM50 21.391L44.2348 15.626H55.7652L50 21.391ZM47.9283 23.4625L42.1633 29.2273V17.6977L47.9283 23.4625ZM47.9283 47.9373L42.1633 53.7021V42.1725L47.9283 47.9373ZM55.9992 64.5687L50 71.1961L44.0006 64.5687H55.9992ZM84.5682 54.7449V55.7732H60.765V40.982L82.6506 51.6738C83.8154 52.243 84.5682 53.4484 84.5682 54.7449ZM52.5035 2.93086L57.0107 12.6961H42.9893L47.4963 2.93105L52.5035 2.93086ZM41.0643 65.6902L48.0242 73.3787L32.0598 91.0146H28.673L41.0643 65.6902ZM97.0703 96.5811C97.0703 96.8502 96.8514 97.0693 96.582 97.0693H3.41797C3.14883 97.0693 2.92969 96.8502 2.92969 96.5811V94.4326C2.92969 94.1635 3.14883 93.9443 3.41797 93.9443H96.582C96.8514 93.9443 97.0703 94.1635 97.0703 94.4326V96.5811Z" fill="white"/>
</g>
<defs>
<clipPath id="clip0">
<rect width="100" height="100" fill="white"/>
</clipPath>
</defs>
</svg>
