<svg width="100" height="100" viewBox="0 0 100 100" fill="none" xmlns="http://www.w3.org/2000/svg">
<g id="electric-meter 1">
<g id="Group">
<g id="Group_2">
<path id="Vector" d="M89.1414 32.8788C88.2224 32.8788 87.4749 32.1312 87.4749 31.2124V7.72737C87.4751 3.46661 84.0085 0 79.7476 0H20.2524C15.9915 0 12.5252 3.46661 12.5252 7.72737V31.2122C12.5252 32.1312 11.7776 32.8786 10.8588 32.8786C8.32444 32.8786 6.26271 34.9406 6.26271 37.4748C6.26271 40.0089 8.32463 42.0709 10.8588 42.0709C11.7778 42.0709 12.5252 42.8185 12.5252 43.7373V67.2221C12.5252 70.9821 15.2252 74.122 18.7878 74.8085V95.4039C18.7878 97.9383 20.8497 100 23.3839 100H76.6163C79.1507 100 81.2124 97.9381 81.2124 95.4039V74.8089C84.7749 74.1222 87.4749 70.9825 87.4749 67.2225V43.7377C87.4749 42.8187 88.2226 42.0713 89.1414 42.0713C91.6757 42.0713 93.7375 40.0093 93.7375 37.4751C93.7379 34.9406 91.6759 32.8788 89.1414 32.8788ZM12.5252 39.4554C12.008 39.2535 11.4465 39.1414 10.8588 39.1414C9.93987 39.1414 9.19241 38.3937 9.19241 37.475C9.19241 36.556 9.94007 35.8085 10.8588 35.8085C11.4465 35.8085 12.0082 35.6964 12.5252 35.4945V39.4554ZM78.2827 95.4043C78.2827 96.323 77.5351 97.0707 76.6161 97.0707H23.3839C22.4649 97.0707 21.7175 96.323 21.7175 95.4043V74.9499H25.0505V84.4447C25.0505 86.1158 26.4099 87.4752 28.081 87.4752H71.9192C73.5903 87.4752 74.9497 86.1158 74.9497 84.4447V74.9499H78.2827V95.4043ZM35.9091 81.2124C36.7181 81.2124 37.374 80.5566 37.374 79.7476V74.9499H43.8382V79.7476C43.8382 80.5566 44.4941 81.2124 45.3031 81.2124C46.1121 81.2124 46.7679 80.5566 46.7679 79.7476V74.9499H53.2322V79.7476C53.2322 80.5566 53.8881 81.2124 54.6971 81.2124C55.5061 81.2124 56.1619 80.5566 56.1619 79.7476V74.9499H62.6262V79.7476C62.6262 80.5566 63.2821 81.2124 64.0911 81.2124C64.9 81.2124 65.5559 80.5566 65.5559 79.7476V74.9499H72.0202V84.4447C72.0202 84.5003 71.9751 84.5455 71.9194 84.5455H28.0808C28.0251 84.5455 27.98 84.5003 27.98 84.4447V74.9499H34.4443V79.7476C34.4443 80.5566 35.1001 81.2124 35.9091 81.2124ZM79.7476 72.02H20.2524C17.6069 72.02 15.4547 69.8677 15.4547 67.2223V7.72737C15.4549 5.08205 17.6069 2.9297 20.2524 2.9297H79.7474C82.3929 2.9297 84.545 5.08205 84.545 7.72737V67.2223H84.5452C84.5454 69.8679 82.3929 72.02 79.7476 72.02ZM89.1414 39.1414C88.5537 39.1414 87.9919 39.2535 87.4749 39.4554V35.4945C87.9919 35.6964 88.5537 35.8085 89.1414 35.8085C90.0603 35.8085 90.8078 36.5562 90.8078 37.475C90.8082 38.3939 90.0605 39.1414 89.1414 39.1414Z" fill="white"/>
</g>
</g>
<g id="Group_3">
<g id="Group_4">
<path id="Vector_2" d="M68.7881 7.82837H21.818C21.0091 7.82837 20.3532 8.48423 20.3532 9.29322V65.6569C20.3532 66.4659 21.0091 67.1218 21.818 67.1218H24.9489C25.7579 67.1218 26.4138 66.4659 26.4138 65.6569C26.4138 64.8479 25.7579 64.1921 24.9489 64.1921H23.2829V10.7581H68.7879C69.5969 10.7581 70.2528 10.1022 70.2528 9.29322C70.253 8.48423 69.5969 7.82837 68.7881 7.82837Z" fill="white"/>
</g>
</g>
<g id="Group_5">
<g id="Group_6">
<path id="Vector_3" d="M78.1819 7.82837H75.0511C74.2421 7.82837 73.5862 8.48423 73.5862 9.29322C73.5862 10.1022 74.2421 10.7581 75.0511 10.7581H76.7171V64.1921H31.2122C30.4032 64.1921 29.7474 64.8479 29.7474 65.6569C29.7474 66.4659 30.4032 67.1218 31.2122 67.1218H78.1819C78.9909 67.1218 79.6468 66.4659 79.6468 65.6569V9.29322C79.6468 8.48404 78.9911 7.82837 78.1819 7.82837Z" fill="white"/>
</g>
</g>
<g id="Group_7">
<g id="Group_8">
<path id="Vector_4" d="M67.2221 25.0504H32.7779C31.1068 25.0504 29.7474 26.4098 29.7474 28.0809V34.3434C29.7474 36.0145 31.1068 37.3739 32.7779 37.3739H67.2221C68.8932 37.3739 70.2526 36.0145 70.2526 34.3434V28.0809C70.2526 26.4098 68.8934 25.0504 67.2221 25.0504ZM36.0101 34.4446H32.7781C32.7224 34.4444 32.6773 34.3991 32.6773 34.3436V28.0811C32.6773 28.0254 32.7224 27.9803 32.7781 27.9803H36.0101V34.4446ZM42.2728 34.4444H38.94V27.9801H42.2728V34.4444ZM48.5351 34.4444H45.2023V27.9801H48.5351V34.4444ZM54.7979 34.4444H51.465V27.9801H54.7979V34.4444ZM61.0602 34.4444H57.7274V27.9801H61.0602V34.4444ZM67.3229 34.3436C67.3229 34.3993 67.2778 34.4444 67.2221 34.4444H63.9901V27.9801H67.2221C67.2778 27.9801 67.3229 28.0252 67.3229 28.0809V34.3436Z" fill="white"/>
</g>
</g>
<g id="Group_9">
<g id="Group_10">
<path id="Vector_5" d="M34.3435 42.2728C31.8093 42.2728 29.7474 44.3346 29.7474 46.8689C29.7474 49.4033 31.8093 51.465 34.3435 51.465C36.8777 51.465 38.9396 49.4031 38.9396 46.8689C38.9398 44.3347 36.8779 42.2728 34.3435 42.2728ZM34.3435 48.5354C33.4247 48.5354 32.6771 47.7877 32.6771 46.8689C32.6771 45.9502 33.4247 45.2025 34.3435 45.2025C35.2622 45.2025 36.0099 45.95 36.0099 46.8689C36.0101 47.7879 35.2624 48.5354 34.3435 48.5354Z" fill="white"/>
</g>
</g>
<g id="Group_11">
<g id="Group_12">
<path id="Vector_6" d="M65.6565 42.2728C63.1221 42.2728 61.0604 44.3347 61.0604 46.8689C61.0604 49.4031 63.1223 51.465 65.6565 51.465C68.1907 51.465 70.2526 49.4031 70.2526 46.8689C70.2528 44.3347 68.1911 42.2728 65.6565 42.2728ZM65.6565 48.5354C64.7376 48.5354 63.9901 47.7877 63.9901 46.8689C63.9901 45.9502 64.7378 45.2025 65.6565 45.2025C66.5753 45.2025 67.3229 45.9502 67.3229 46.8689C67.3231 47.7877 66.5757 48.5354 65.6565 48.5354Z" fill="white"/>
</g>
</g>
<g id="Group_13">
<g id="Group_14">
<path id="Vector_7" d="M50 42.2728C47.4656 42.2728 45.4039 44.3346 45.4039 46.8689C45.4039 49.4033 47.4658 51.465 50 51.465C52.5342 51.465 54.5961 49.4031 54.5961 46.8689C54.5963 44.3347 52.5344 42.2728 50 42.2728ZM50 48.5354C49.0813 48.5354 48.3336 47.7877 48.3336 46.8689C48.3336 45.9502 49.0813 45.2025 50 45.2025C50.9188 45.2025 51.6664 45.95 51.6664 46.8689C51.6666 47.7879 50.919 48.5354 50 48.5354Z" fill="white"/>
</g>
</g>
</g>
</svg>
