<svg width="100" height="100" viewBox="0 0 100 100" fill="none" xmlns="http://www.w3.org/2000/svg">
<path d="M49.7031 99.9981C39.3573 99.9981 29.2948 96.7606 20.7281 90.5731C15.4041 86.7433 10.8907 81.8976 7.44814 76.3154C4.00555 70.7332 1.70185 64.5248 0.669812 58.0481C-0.402897 51.5733 -0.185407 44.9503 1.30978 38.5598C2.80497 32.1693 5.54837 26.1374 9.38231 20.8106C13.1785 15.4695 17.9999 10.9376 23.5654 7.4788C29.1309 4.02004 35.3292 1.70368 41.799 0.66475C48.25 -0.405528 54.8496 -0.181608 61.2132 1.32347C67.5769 2.82854 73.5775 5.5847 78.8656 9.43142C84.1901 13.2621 88.704 18.1085 92.1472 23.6914C95.5904 29.2742 97.895 35.4832 98.9281 41.9606C99.9999 48.4354 99.782 55.0582 98.2868 61.4485C96.7917 67.8389 94.0488 73.8709 90.2156 79.1981C86.4186 84.5383 81.597 89.0697 76.0317 92.5284C70.4663 95.987 64.2684 98.3039 57.799 99.3439C55.1222 99.7781 52.4149 99.9968 49.7031 99.9981ZM22.7281 87.8064C27.6528 91.388 33.2405 93.9545 39.1662 95.3565C45.092 96.7586 51.2373 96.9681 57.2448 95.9731C63.2703 95.0034 69.0427 92.8448 74.226 89.6229C79.4093 86.4011 83.8999 82.1803 87.4365 77.2064C102.366 56.3606 97.624 27.1939 76.8615 12.1939C71.9369 8.61231 66.3491 6.04583 60.4234 4.6438C54.4977 3.24177 48.3523 3.03219 42.3448 4.02725C36.3202 4.99792 30.5488 7.15695 25.3663 10.3788C20.1838 13.6006 15.6937 17.8208 12.1573 22.7939C-2.77602 43.6439 1.96981 72.8064 22.7281 87.8064ZM66.9198 73.0064C68.3781 72.6055 69.7061 71.8301 70.7718 70.757C71.8375 69.684 72.6039 68.3507 72.9948 66.8897L73.2531 65.9897L73.2865 41.8814C73.3115 23.8231 73.2865 17.6564 73.1865 17.3189C73.0936 16.9877 72.9253 16.6826 72.6948 16.4272C72.3479 16.2193 71.9492 16.1138 71.5448 16.1231C71.2406 16.1231 70.1906 16.2689 69.2115 16.4481C64.874 17.2397 39.3115 22.3272 38.874 22.4897C38.1648 22.7726 37.5768 23.2943 37.2115 23.9648L36.9406 24.4981C36.9406 24.4981 36.8115 62.2897 36.6156 62.7147C36.2971 63.3818 35.7371 63.9031 35.049 64.1731C34.2097 64.3913 33.3634 64.5817 32.5115 64.7439C27.3823 65.7647 25.4781 66.4981 23.8656 68.0814C22.949 68.9814 22.274 70.2064 21.9781 71.4981C21.699 72.7231 21.7906 74.5647 22.1906 75.6856C22.6073 76.8564 23.2823 77.8564 24.1615 78.6439C24.9615 79.2606 25.9073 79.7189 26.9698 79.9939C29.3156 80.5939 33.7115 79.9272 35.9615 78.6273C37.0503 77.9437 37.9945 77.0533 38.7406 76.0064C38.9906 75.6356 39.3656 74.8897 39.574 74.3439C40.3073 72.4439 40.3281 38.5897 40.424 38.1647C40.4881 37.8243 40.6473 37.5089 40.8833 37.2552C41.1193 37.0015 41.4223 36.8199 41.7573 36.7314C42.3698 36.5647 66.9865 31.7022 67.6823 31.6064C68.2906 31.5231 68.8656 31.7189 69.1823 32.1064C69.3652 32.1991 69.5215 32.3367 69.6365 32.5064C69.8365 32.7981 69.849 33.3939 69.8781 44.1106C69.9115 56.4439 69.9281 56.1606 69.2573 56.9397C68.7698 57.5064 68.1615 57.7272 65.6573 58.2314C61.849 59.0147 60.549 59.3814 59.0906 60.0939C57.2698 60.9814 56.2615 61.9522 55.4781 63.5731C54.9682 64.541 54.7076 65.6208 54.7198 66.7147C54.724 68.7564 55.424 70.3439 57.0115 71.9023C57.1573 72.0439 57.299 72.1772 57.4448 72.3064C58.2448 72.9231 59.0573 73.2981 60.0823 73.5314C61.624 73.8731 64.7656 73.6356 66.9198 73.0064Z" fill="black"/>
</svg>
