<svg width="100" height="100" viewBox="0 0 100 100" fill="none" xmlns="http://www.w3.org/2000/svg">
<path d="M50.5625 100C58.375 100 89.3708 64.8375 89.3708 41.2667C89.3708 18.7083 71.75 0 50.5625 0C28.25 0 10.6292 18.7 10.6292 41.2667C10.6292 64.8333 41.625 100 50.5625 100ZM44.3291 16.025C46.35 15.525 48.475 15.2542 50.6791 15.2542C63.1791 15.2542 73.9333 25.8833 73.9333 39.6917C73.9333 52.1292 63.1791 62.7542 50.6166 62.7542C36.6791 62.7542 25.9291 52.1292 25.9291 39.6917C25.9291 33.875 27.8041 28.6917 31.05 24.5667V24.6917C31.05 29.8792 35.2416 34 40.425 34C45.6166 34.0042 50 29.75 50 24.5667C50 20.7375 47.6666 17.45 44.3375 16.0125L44.3291 16.025Z" fill="black"/>
</svg>
