<svg width="100" height="100" viewBox="0 0 100 100" fill="none" xmlns="http://www.w3.org/2000/svg">
<g id="solar-panel 1">
<g id="Group">
<g id="Group_2">
<path id="Vector" d="M49.9998 7.87512C45.9308 7.87512 42.6207 11.1853 42.6207 15.2543C42.6207 19.3232 45.9308 22.6332 49.9998 22.6332C54.0688 22.6332 57.3789 19.3228 57.3789 15.2543C57.3791 11.1853 54.0688 7.87512 49.9998 7.87512ZM49.9998 19.6881C47.5549 19.6881 45.5656 17.699 45.5656 15.2541C45.5656 12.8091 47.5547 10.8199 49.9998 10.8199C52.4449 10.8199 54.434 12.8089 54.434 15.2541C54.434 17.6992 52.4449 19.6881 49.9998 19.6881Z" fill="white"/>
</g>
</g>
<g id="Group_3">
<g id="Group_4">
<path id="Vector_2" d="M49.9998 0C49.1863 0 48.5273 0.659378 48.5273 1.47247V3.44122C48.5273 4.25451 49.1865 4.91369 49.9998 4.91369C50.8131 4.91369 51.4723 4.25431 51.4723 3.44122V1.47247C51.4725 0.659378 50.8133 0 49.9998 0Z" fill="white"/>
</g>
</g>
<g id="Group_5">
<g id="Group_6">
<path id="Vector_3" d="M42.6883 5.8598L41.2961 4.4678C40.7213 3.8928 39.7888 3.89299 39.2136 4.4678C38.6386 5.0428 38.6386 5.97523 39.2138 6.55042L40.6058 7.94262C40.8933 8.23012 41.2703 8.37387 41.647 8.37387C42.0238 8.37387 42.4008 8.23012 42.6885 7.94242C43.2635 7.36722 43.2635 6.4348 42.6883 5.8598Z" fill="white"/>
</g>
</g>
<g id="Group_7">
<g id="Group_8">
<path id="Vector_4" d="M38.1873 13.7812H36.2185C35.405 13.7812 34.746 14.4406 34.746 15.2537C34.746 16.067 35.4052 16.7262 36.2185 16.7262H38.1873C39.0007 16.7262 39.6597 16.0668 39.6597 15.2537C39.6597 14.4406 39.0005 13.7812 38.1873 13.7812Z" fill="white"/>
</g>
</g>
<g id="Group_9">
<g id="Group_10">
<path id="Vector_5" d="M42.6883 22.5658C42.1131 21.9908 41.1808 21.9908 40.6054 22.5658L39.2134 23.9578C38.6384 24.5328 38.6384 25.4652 39.2134 26.0402C39.5011 26.3277 39.8781 26.4716 40.2549 26.4716C40.6316 26.4716 41.0086 26.3279 41.2963 26.0402L42.6883 24.6482C43.2633 24.0732 43.2633 23.1408 42.6883 22.5658Z" fill="white"/>
</g>
</g>
<g id="Group_11">
<g id="Group_12">
<path id="Vector_6" d="M49.9998 25.5942C49.1863 25.5942 48.5273 26.2536 48.5273 27.0667V29.0355C48.5273 29.8487 49.1865 30.5079 49.9998 30.5079C50.8131 30.5079 51.4723 29.8485 51.4723 29.0355V27.0667C51.4725 26.2536 50.8133 25.5942 49.9998 25.5942Z" fill="white"/>
</g>
</g>
<g id="Group_13">
<g id="Group_14">
<path id="Vector_7" d="M60.7864 23.9581L59.3944 22.5661C58.8194 21.9911 57.8869 21.9909 57.3117 22.5659C56.7365 23.1409 56.7365 24.0733 57.3115 24.6485L58.7035 26.0405C58.9912 26.328 59.368 26.4718 59.7449 26.4718C60.1217 26.4718 60.4987 26.328 60.7862 26.0405C61.3614 25.4655 61.3614 24.5331 60.7864 23.9581Z" fill="white"/>
</g>
</g>
<g id="Group_15">
<g id="Group_16">
<path id="Vector_8" d="M63.7815 13.7817H61.8127C60.9993 13.7817 60.3403 14.4411 60.3403 15.2542C60.3403 16.0673 60.9995 16.7267 61.8127 16.7267H63.7815C64.595 16.7267 65.254 16.0673 65.254 15.2542C65.254 14.4411 64.595 13.7817 63.7815 13.7817Z" fill="white"/>
</g>
</g>
<g id="Group_17">
<g id="Group_18">
<path id="Vector_9" d="M60.7862 4.46756C60.2114 3.89255 59.2789 3.89275 58.7037 4.46756L57.3117 5.85955C56.7367 6.43455 56.7367 7.36698 57.3119 7.94218C57.5993 8.22987 57.9762 8.37362 58.353 8.37362C58.7297 8.37362 59.1067 8.22987 59.3944 7.94218L60.7864 6.55018C61.3614 5.97518 61.3614 5.04275 60.7862 4.46756Z" fill="white"/>
</g>
</g>
<g id="Group_19">
<g id="Group_20">
<path id="Vector_10" d="M90.8447 75.4263C90.8435 75.4005 90.8433 75.3749 90.8408 75.3492C90.8357 75.2974 90.8279 75.2464 90.8174 75.1964C90.8172 75.1952 90.8172 75.1943 90.8168 75.1931L88.1943 62.7364C88.1933 62.7319 88.1924 62.7276 88.1916 62.7231L85.5693 50.2672C85.5683 50.2627 85.5673 50.2584 85.5666 50.2539L82.9417 37.7857C82.7984 37.1043 82.1972 36.6166 81.5007 36.6166H18.4987C17.8022 36.6166 17.2012 37.1043 17.0577 37.7857L14.4335 50.2526C14.4323 50.2578 14.4311 50.2629 14.4301 50.2682L11.8081 62.7243C11.8073 62.7278 11.8065 62.7315 11.8059 62.735L9.18363 75.1919C9.17269 75.2445 9.16429 75.2982 9.15902 75.3525C9.15785 75.365 9.15804 75.3779 9.15707 75.3904C9.15453 75.4253 9.15179 75.4603 9.15179 75.496V81.4029C9.15179 82.2162 9.81098 82.8754 10.6243 82.8754H45.5736V91.148H34.249C33.4355 91.148 32.7765 91.8074 32.7765 92.6205V97.0549H18.4989C17.6854 97.0549 17.0264 97.7143 17.0264 98.5274C17.0264 99.3405 17.6856 99.9998 18.4989 99.9998H34.2492H65.7503H81.4984C82.3119 99.9998 82.9708 99.3405 82.9708 98.5274C82.9708 97.7143 82.3117 97.0549 81.4984 97.0549H67.2229V92.6205C67.2229 91.8072 66.5637 91.148 65.7505 91.148H54.4258V82.8754H89.3754C90.1888 82.8754 90.8478 82.216 90.8478 81.4029V75.5224C90.848 75.5204 90.848 75.5181 90.848 75.5158V75.4966C90.8482 75.4726 90.8459 75.4497 90.8447 75.4263ZM87.5611 74.0238H64.4983L63.8298 64.4997H85.556L87.5611 74.0238ZM82.931 52.0307L84.9363 61.5548H63.6231L62.9546 52.0307H82.931ZM80.306 39.5617L82.3113 49.0858H62.7479L62.0794 39.5617H80.306ZM40.8722 39.5617H59.1272L59.7958 49.0858H40.2039L40.8722 39.5617ZM39.9974 52.0307H60.0024L60.6709 61.5548H39.3291L39.9974 52.0307ZM39.1226 64.4999H60.8776L61.546 74.0238H38.4543L39.1226 64.4999ZM19.6936 39.5617H37.9201L37.2517 49.0858H17.6885L19.6936 39.5617ZM17.0688 52.0307H37.0451L36.3767 61.5548H15.0637L17.0688 52.0307ZM64.278 94.0936V97.0553H35.7218V94.0936H47.0465H52.9535H64.278ZM48.5189 91.1484V82.8757H51.4809V91.1484H48.5189ZM52.9705 79.9306C52.9649 79.9306 52.9592 79.9298 52.9535 79.9298H47.0465C47.0408 79.9298 47.0351 79.9306 47.0295 79.9306H12.0967V76.9689H19.1114C19.9249 76.9689 20.5839 76.3095 20.5839 75.4964C20.5839 74.6831 19.9247 74.024 19.1114 74.024H12.4389L14.4438 64.4999H36.1701L35.5017 74.0238H25.4794H25.4792C24.6657 74.0238 24.0067 74.6831 24.0067 75.4962C24.0067 76.3095 24.6659 76.9687 25.4792 76.9687H25.4794H36.8734C36.8744 76.9687 36.8751 76.9687 36.8761 76.9687C36.8767 76.9687 36.8775 76.9687 36.8781 76.9687H63.1217C63.1223 76.9687 63.1231 76.9687 63.1237 76.9687C63.1247 76.9687 63.1255 76.9687 63.1264 76.9687H87.9027V79.9304H52.9705V79.9306Z" fill="white"/>
</g>
</g>
</g>
</svg>
