<svg width="610" height="610" viewBox="0 0 610 610" fill="none" xmlns="http://www.w3.org/2000/svg">
<g id="Why Us svg">
<g id="Ellipse 3" filter="url(#filter0_f)">
<circle cx="305" cy="305" r="225" fill="#FFDADA"/>
</g>
<g id="undraw_approve_qwp7 1" clip-path="url(#clip0)">
<path id="Vector" d="M501.457 388.203C497.818 409.325 481.425 425.679 463.972 439.972C461.535 441.968 459.093 443.925 456.644 445.843C456.627 445.853 456.611 445.871 456.594 445.88C456.476 445.972 456.358 446.064 456.249 446.156C455.743 446.551 455.238 446.946 454.736 447.337L455.051 447.43L456.031 447.714C455.694 447.627 455.363 447.544 455.026 447.456C454.926 447.43 454.822 447.407 454.722 447.38C443.15 444.431 431.344 441.195 421.884 434.286C412.07 427.111 405.311 414.878 408.696 403.608C409.141 402.131 409.76 400.706 410.541 399.359C410.86 398.795 411.212 398.25 411.581 397.712C413.818 394.398 416.95 391.705 420.655 389.911C424.36 388.117 428.505 387.286 432.664 387.504C436.822 387.723 440.844 388.982 444.315 391.153C447.786 393.323 450.582 396.327 452.415 399.855C452.25 387.437 440.227 378.381 428.95 371.972C417.669 365.567 404.896 358.647 401.349 346.681C399.372 340.023 401.035 333.166 404.918 327.372C405.039 327.196 405.159 327.02 405.285 326.847C410.047 320.072 417.342 315.241 425.715 313.32C441.337 309.976 457.709 316.135 470.523 325.21C491.145 339.81 505.593 364.188 501.457 388.203Z" fill="#F2F2F2"/>
<path id="Vector_2" d="M468.322 364.87C471.926 368.982 474.874 373.569 477.075 378.484C478.967 382.886 480.151 387.53 480.587 392.262C481.536 401.982 479.582 411.808 475.684 420.803C472.652 427.633 468.717 434.074 463.972 439.972C461.535 441.968 459.093 443.925 456.644 445.843C456.627 445.853 456.611 445.871 456.594 445.88C456.476 445.972 456.358 446.064 456.249 446.156C455.743 446.551 455.238 446.946 454.736 447.337L455.051 447.43L456.031 447.714C455.694 447.627 455.363 447.544 455.026 447.457C454.926 447.43 454.822 447.407 454.722 447.38C454.737 439.617 452.779 431.963 449.014 425.06C445.248 418.158 439.783 412.207 433.077 407.707C426.367 403.288 418.645 400.427 410.541 399.359C410.86 398.795 411.212 398.25 411.581 397.712C414.717 398.171 417.804 398.891 420.806 399.862C431.532 403.308 440.798 409.92 447.231 418.72C453.016 426.718 456.264 436.106 456.591 445.784C456.995 445.345 457.399 444.897 457.789 444.455C465.237 436.128 471.608 426.816 475.405 416.473C478.725 407.701 479.708 398.294 478.267 389.08C476.573 379.048 471.127 370.194 463.93 362.764C456.22 354.814 446.963 348.056 437.276 342.391C427.352 336.575 416.711 331.928 405.59 328.552C405.339 328.474 405.129 328.308 405.004 328.089C404.879 327.869 404.848 327.612 404.918 327.372C404.962 327.158 405.094 326.97 405.285 326.847C405.384 326.793 405.495 326.76 405.609 326.752C405.723 326.744 405.838 326.76 405.945 326.799C407.318 327.217 408.683 327.643 410.041 328.096C421.351 331.864 432.121 336.944 442.103 343.218C451.744 349.261 460.999 356.364 468.322 364.87Z" fill="white"/>
<path id="Vector_3" d="M271.629 316.637C270.517 316.635 269.447 316.235 268.636 315.517C267.825 314.799 267.333 313.817 267.26 312.77L266.609 303.396C266.533 302.302 266.922 301.223 267.688 300.398C268.455 299.573 269.538 299.07 270.698 298.998L348.539 294.188C349.767 294.112 350.998 294.264 352.163 294.637C353.328 295.01 354.404 295.595 355.328 296.36C356.253 297.125 357.01 298.055 357.554 299.095C358.098 300.136 358.419 301.268 358.5 302.426C358.58 303.584 358.418 304.746 358.022 305.844C357.627 306.943 357.005 307.958 356.194 308.83C355.383 309.702 354.397 310.415 353.294 310.928C352.19 311.441 350.991 311.743 349.763 311.819L271.922 316.628C271.824 316.634 271.727 316.637 271.629 316.637Z" fill="#BA1628"/>
<path id="Vector_4" d="M286.978 317.845C285.844 317.844 284.755 317.428 283.939 316.686C283.122 315.943 282.642 314.932 282.598 313.863L282.043 299.862C282.022 299.319 282.114 298.777 282.314 298.268C282.515 297.759 282.819 297.292 283.211 296.893C283.603 296.495 284.074 296.174 284.597 295.947C285.121 295.721 285.686 295.594 286.262 295.573L350.273 293.316C351.435 293.275 352.567 293.672 353.419 294.418C354.272 295.164 354.775 296.2 354.818 297.296L355.373 311.297C355.395 311.84 355.302 312.381 355.102 312.891C354.902 313.4 354.597 313.867 354.205 314.265C353.814 314.664 353.343 314.985 352.819 315.212C352.296 315.438 351.73 315.565 351.155 315.585L287.144 317.842C287.089 317.844 287.033 317.845 286.978 317.845Z" fill="black"/>
<path id="Vector_5" d="M361.989 446.906H352.032C350.869 446.905 349.754 446.469 348.932 445.693C348.11 444.918 347.648 443.866 347.647 442.77V364.476C347.648 363.38 348.11 362.328 348.932 361.552C349.754 360.777 350.869 360.341 352.032 360.339H361.989C363.151 360.341 364.266 360.777 365.088 361.552C365.91 362.328 366.372 363.38 366.374 364.476V442.77C366.372 443.866 365.91 444.918 365.088 445.693C364.266 446.469 363.151 446.905 361.989 446.906Z" fill="black"/>
<path id="Vector_6" d="M317.793 405.521L309.279 400.652C308.285 400.082 307.572 399.164 307.295 398.099C307.018 397.034 307.2 395.908 307.802 394.97L350.817 328.016C351.421 327.079 352.394 326.406 353.523 326.144C354.653 325.883 355.845 326.055 356.84 326.623L365.355 331.492C366.349 332.061 367.062 332.98 367.339 334.045C367.616 335.11 367.433 336.235 366.832 337.174L323.816 404.128C323.212 405.065 322.239 405.738 321.11 406C319.981 406.261 318.788 406.089 317.793 405.521Z" fill="black"/>
<path id="Vector_7" d="M346.866 278.632C365.867 278.632 381.271 264.099 381.271 246.173C381.271 228.246 365.867 213.713 346.866 213.713C327.865 213.713 312.461 228.246 312.461 246.173C312.461 264.099 327.865 278.632 346.866 278.632Z" fill="#BA1628"/>
<path id="Vector_8" d="M328.243 257.256C327.136 256.912 326.12 256.35 325.263 255.605C324.695 255.074 324.258 254.432 323.981 253.724C323.704 253.016 323.594 252.259 323.659 251.507C323.695 250.971 323.862 250.451 324.147 249.986C324.432 249.521 324.826 249.124 325.3 248.827C326.531 248.082 328.176 248.08 329.852 248.777L329.788 236.105L331.137 236.099L331.212 250.996L330.172 250.379C328.967 249.665 327.245 249.162 326.029 249.899C325.728 250.093 325.479 250.35 325.301 250.651C325.123 250.951 325.021 251.285 325.003 251.629C324.957 252.189 325.04 252.752 325.246 253.279C325.452 253.807 325.775 254.286 326.195 254.685C327.685 256.027 329.858 256.447 332.337 256.822L332.123 258.079C330.806 257.914 329.508 257.639 328.243 257.256Z" fill="black"/>
<g id="Eyes">
<path id="Vector_9" d="M315.88 235.465L315.703 236.727L322.908 237.624L323.084 236.363L315.88 235.465Z" fill="black"/>
<path id="Vector_10" d="M338.619 238.297L338.443 239.559L345.647 240.457L345.823 239.195L338.619 238.297Z" fill="black"/>
</g>
<path id="Vector_11" d="M375.594 385.483H317.578C316.058 385.481 314.6 384.91 313.525 383.896C312.45 382.882 311.846 381.507 311.844 380.073L323.99 292.201C323.999 290.773 324.608 289.407 325.681 288.401C326.755 287.395 328.208 286.831 329.721 286.832H350.31C358.534 286.841 366.418 289.927 372.233 295.413C378.048 300.899 381.319 308.337 381.328 316.096V380.073C381.327 381.507 380.722 382.882 379.647 383.896C378.572 384.91 377.114 385.481 375.594 385.483Z" fill="black"/>
<path id="Vector_12" d="M360.985 380.798C360.632 381.524 360.065 382.138 359.35 382.567C358.636 382.996 357.806 383.221 356.959 383.215L347.003 383.133C346.427 383.128 345.858 383.017 345.328 382.805C344.798 382.592 344.317 382.284 343.913 381.896C343.51 381.509 343.191 381.05 342.975 380.546C342.76 380.043 342.651 379.504 342.656 378.96L343.333 305.367C343.343 304.207 343.596 303.06 344.076 301.992C344.557 300.925 345.255 299.956 346.132 299.143C347.009 298.33 348.047 297.688 349.187 297.253C350.327 296.819 351.547 296.6 352.777 296.61C354.006 296.62 355.221 296.859 356.353 297.312C357.485 297.765 358.511 298.424 359.373 299.252C360.235 300.079 360.916 301.058 361.376 302.134C361.837 303.209 362.069 304.36 362.058 305.52L361.382 379.114C361.378 379.695 361.242 380.269 360.985 380.798Z" fill="#BA1628"/>
<path id="Vector_13" d="M365.384 361.152C365.031 361.878 364.463 362.492 363.749 362.921C363.035 363.35 362.204 363.574 361.358 363.568L344.351 363.429C343.189 363.418 342.079 362.973 341.264 362.191C340.449 361.408 339.996 360.353 340.005 359.256L340.56 298.826C340.565 298.282 340.684 297.745 340.909 297.245C341.134 296.745 341.461 296.292 341.871 295.911C342.282 295.53 342.768 295.229 343.302 295.026C343.836 294.822 344.407 294.72 344.983 294.725L361.989 294.864C362.565 294.868 363.134 294.98 363.664 295.192C364.194 295.405 364.675 295.713 365.079 296.101C365.482 296.488 365.801 296.947 366.017 297.451C366.232 297.954 366.341 298.493 366.336 299.036L365.781 359.467C365.776 360.049 365.641 360.623 365.384 361.152Z" fill="black"/>
<path id="Vector_14" d="M347.509 226.921C342.91 223.33 336.762 226.727 331.561 226.245C326.585 225.783 322.58 221.652 321.488 217.206C320.215 212.019 322.975 206.75 327.133 203.428C331.686 199.788 337.8 198.658 343.626 199.211C350.304 199.846 356.456 202.667 361.994 206.113C367.338 209.333 372.269 213.126 376.689 217.415C380.65 221.388 384.033 226.146 385.192 231.566C386.245 236.492 385.627 241.982 382.615 246.225C381.016 248.401 378.849 250.151 376.324 251.307C373.694 252.585 370.878 253.515 368.333 254.952C364.486 257.125 360.792 261.554 362.102 266.071C362.384 267.057 362.918 267.964 363.657 268.71C364.546 269.606 366.092 268.373 365.201 267.475C363.636 265.897 363.653 263.754 364.431 261.823C365.359 259.645 367.044 257.83 369.208 256.674C371.872 255.173 374.828 254.223 377.561 252.85C380.179 251.594 382.436 249.76 384.141 247.503C387.358 243.113 388.232 237.458 387.378 232.256C386.454 226.627 383.277 221.554 379.338 217.326C375.051 212.724 369.821 208.858 364.488 205.396C358.766 201.681 352.464 198.567 345.538 197.523C339.535 196.619 333.063 197.358 327.893 200.528C323.068 203.487 319.422 208.493 319.161 214.018C319.078 216.532 319.706 219.021 320.981 221.229C322.256 223.438 324.132 225.286 326.415 226.583C328.757 227.849 331.46 228.389 334.145 228.127C337.016 227.902 339.876 227.02 342.774 227.199C344.084 227.25 345.341 227.703 346.354 228.489C347.359 229.274 348.506 227.699 347.509 226.921V226.921Z" fill="black"/>
<path id="Vector_15" d="M307.054 396.101C307.066 396.029 307.081 395.958 307.097 395.886C307.217 395.355 307.448 394.851 307.775 394.404C308.103 393.957 308.522 393.576 309.007 393.282L317.374 388.191C318.352 387.597 319.539 387.394 320.675 387.625C321.812 387.857 322.804 388.504 323.436 389.425L349.247 427.179C349.877 428.101 350.093 429.222 349.848 430.294C349.603 431.367 348.916 432.303 347.939 432.898L339.571 437.99C338.594 438.583 337.406 438.786 336.27 438.555C335.134 438.324 334.141 437.677 333.51 436.756L307.698 399.001C307.108 398.144 306.879 397.11 307.054 396.101Z" fill="black"/>
<path id="Path 336" d="M275.717 147.28C275.074 145.84 273.998 144.609 272.621 143.74C271.245 142.872 269.628 142.402 267.972 142.391H113.38C111.158 142.392 109.027 143.226 107.456 144.708C105.884 146.191 105.001 148.201 105 150.298V334.811C105.001 336.908 105.884 338.918 107.456 340.4C109.027 341.883 111.158 342.716 113.38 342.717H267.978C270.199 342.715 272.329 341.881 273.9 340.399C275.471 338.917 276.355 336.907 276.358 334.811V150.298C276.362 149.262 276.146 148.236 275.723 147.28H275.717ZM274.491 334.811C274.489 336.442 273.802 338.005 272.58 339.158C271.358 340.311 269.701 340.96 267.972 340.962H113.38C111.651 340.961 109.994 340.313 108.771 339.16C107.549 338.007 106.862 336.443 106.861 334.812V150.299C106.863 148.668 107.551 147.105 108.773 145.952C109.995 144.799 111.652 144.15 113.38 144.148H267.978C269.28 144.153 270.551 144.523 271.628 145.212C272.706 145.902 273.542 146.878 274.029 148.017C274.124 148.244 274.206 148.476 274.274 148.711C274.422 149.229 274.497 149.762 274.497 150.299L274.491 334.811Z" fill="black"/>
<path id="Path 337" d="M243.456 185.954H196.891C195.903 185.954 194.955 185.584 194.256 184.925C193.558 184.266 193.165 183.372 193.165 182.44C193.165 181.508 193.558 180.614 194.256 179.954C194.955 179.295 195.903 178.925 196.891 178.925H243.456C244.444 178.925 245.392 179.295 246.09 179.954C246.789 180.614 247.181 181.508 247.181 182.44C247.181 183.372 246.789 184.266 246.09 184.925C245.392 185.584 244.444 185.954 243.456 185.954Z" fill="black"/>
<path id="Path 338" d="M243.456 204.406H196.891C196.401 204.406 195.916 204.316 195.463 204.14C195.011 203.963 194.6 203.705 194.253 203.378C193.907 203.052 193.632 202.664 193.444 202.237C193.257 201.811 193.16 201.353 193.16 200.891C193.16 200.429 193.257 199.972 193.444 199.545C193.632 199.118 193.907 198.731 194.253 198.404C194.6 198.078 195.011 197.819 195.463 197.643C195.916 197.466 196.401 197.376 196.891 197.376H243.456C243.946 197.376 244.431 197.466 244.883 197.643C245.336 197.819 245.747 198.078 246.093 198.404C246.44 198.731 246.715 199.118 246.902 199.545C247.09 199.972 247.186 200.429 247.186 200.891C247.186 201.353 247.09 201.811 246.902 202.237C246.715 202.664 246.44 203.052 246.093 203.378C245.747 203.705 245.336 203.963 244.883 204.14C244.431 204.316 243.946 204.406 243.456 204.406Z" fill="black"/>
<path id="Path 339" d="M172.998 214.912H138.968C137.857 214.911 136.792 214.494 136.006 213.753C135.22 213.011 134.778 212.006 134.777 210.958V173.071C134.778 172.023 135.22 171.018 136.006 170.276C136.792 169.535 137.857 169.118 138.968 169.117H172.998C174.109 169.118 175.175 169.535 175.961 170.276C176.746 171.018 177.188 172.023 177.189 173.071V210.958C177.188 212.006 176.746 213.011 175.961 213.753C175.175 214.494 174.109 214.911 172.998 214.912Z" fill="#BA1628"/>
<path id="Path 340" d="M243.133 242.187H137.895C136.907 242.187 135.96 241.817 135.261 241.158C134.562 240.499 134.17 239.605 134.17 238.673C134.17 237.741 134.562 236.847 135.261 236.188C135.96 235.528 136.907 235.158 137.895 235.158H243.133C244.121 235.158 245.068 235.528 245.767 236.188C246.466 236.847 246.858 237.741 246.858 238.673C246.858 239.605 246.466 240.499 245.767 241.158C245.068 241.817 244.121 242.187 243.133 242.187Z" fill="black"/>
<path id="Path 341" d="M243.133 260.639H137.895C136.907 260.639 135.96 260.268 135.261 259.609C134.562 258.95 134.17 258.056 134.17 257.124C134.17 256.192 134.562 255.298 135.261 254.639C135.96 253.98 136.907 253.609 137.895 253.609H243.133C244.121 253.609 245.068 253.98 245.767 254.639C246.466 255.298 246.858 256.192 246.858 257.124C246.858 258.056 246.466 258.95 245.767 259.609C245.068 260.268 244.121 260.639 243.133 260.639Z" fill="black"/>
<path id="Path 342" d="M243.133 279.09H137.895C136.908 279.089 135.962 278.718 135.264 278.059C134.567 277.4 134.175 276.507 134.175 275.575C134.175 274.644 134.567 273.751 135.264 273.092C135.962 272.433 136.908 272.062 137.895 272.061H243.133C243.622 272.06 244.107 272.151 244.56 272.327C245.012 272.503 245.424 272.762 245.77 273.089C246.117 273.415 246.392 273.803 246.579 274.229C246.767 274.656 246.863 275.114 246.863 275.575C246.863 276.037 246.767 276.495 246.579 276.922C246.392 277.348 246.117 277.736 245.77 278.062C245.424 278.389 245.012 278.648 244.56 278.824C244.107 279 243.622 279.091 243.133 279.09Z" fill="black"/>
<path id="Path 343" d="M243.133 297.541H137.895C136.907 297.541 135.96 297.171 135.261 296.512C134.562 295.853 134.17 294.959 134.17 294.027C134.17 293.095 134.562 292.201 135.261 291.542C135.96 290.882 136.907 290.512 137.895 290.512H243.133C244.121 290.512 245.068 290.882 245.767 291.542C246.466 292.201 246.858 293.095 246.858 294.027C246.858 294.959 246.466 295.853 245.767 296.512C245.068 297.171 244.121 297.541 243.133 297.541Z" fill="black"/>
<path id="Path 344" d="M243.133 315.993H137.895C136.907 315.993 135.96 315.623 135.261 314.963C134.562 314.304 134.17 313.41 134.17 312.478C134.17 311.546 134.562 310.652 135.261 309.993C135.96 309.334 136.907 308.964 137.895 308.964H243.133C244.121 308.964 245.068 309.334 245.767 309.993C246.466 310.652 246.858 311.546 246.858 312.478C246.858 313.41 246.466 314.304 245.767 314.963C245.068 315.623 244.121 315.993 243.133 315.993Z" fill="black"/>
<path id="Ellipse 44" d="M276.873 177.838C296.729 177.838 312.825 162.652 312.825 143.919C312.825 125.186 296.729 110 276.873 110C257.017 110 240.921 125.186 240.921 143.919C240.921 162.652 257.017 177.838 276.873 177.838Z" fill="#BA1628"/>
<path id="Path 395" d="M273.31 156.858C272.501 156.859 271.714 156.612 271.067 156.155L271.027 156.126L262.578 150.028C262.186 149.745 261.858 149.392 261.611 148.99C261.364 148.587 261.204 148.142 261.14 147.681C261.075 147.22 261.107 146.751 261.235 146.302C261.362 145.852 261.582 145.431 261.882 145.062C262.182 144.693 262.556 144.383 262.983 144.15C263.41 143.917 263.881 143.766 264.37 143.705C264.859 143.644 265.356 143.675 265.832 143.795C266.309 143.915 266.755 144.123 267.146 144.406L272.619 148.365L285.552 132.448C285.851 132.079 286.225 131.769 286.652 131.536C287.079 131.304 287.55 131.152 288.039 131.092C288.527 131.031 289.024 131.061 289.5 131.181C289.976 131.301 290.423 131.509 290.814 131.792L290.815 131.793L290.735 131.898L290.817 131.793C291.606 132.365 292.122 133.209 292.253 134.14C292.383 135.071 292.116 136.013 291.511 136.758L276.3 155.472C275.948 155.904 275.496 156.252 274.978 156.492C274.46 156.732 273.89 156.855 273.313 156.854L273.31 156.858Z" fill="white"/>
<path id="Vector_16" d="M504.335 448H259.735C259.559 448 259.39 447.934 259.265 447.816C259.14 447.699 259.07 447.539 259.07 447.373C259.07 447.207 259.14 447.047 259.265 446.93C259.39 446.812 259.559 446.746 259.735 446.746H504.335C504.512 446.746 504.681 446.812 504.805 446.93C504.93 447.047 505 447.207 505 447.373C505 447.539 504.93 447.699 504.805 447.816C504.681 447.934 504.512 448 504.335 448Z" fill="black"/>
</g>
</g>
<defs>
<filter id="filter0_f" x="0" y="0" width="610" height="610" filterUnits="userSpaceOnUse" color-interpolation-filters="sRGB">
<feFlood flood-opacity="0" result="BackgroundImageFix"/>
<feBlend mode="normal" in="SourceGraphic" in2="BackgroundImageFix" result="shape"/>
<feGaussianBlur stdDeviation="40" result="effect1_foregroundBlur"/>
</filter>
<clipPath id="clip0">
<rect width="400" height="338" fill="white" transform="translate(105 110)"/>
</clipPath>
</defs>
</svg>
