<svg width="100" height="100" viewBox="0 0 100 100" fill="none" xmlns="http://www.w3.org/2000/svg">
<g clip-path="url(#clip0)">
<path d="M97.9131 25.8459C97.3336 23.7689 96.228 21.8764 94.7032 20.3516C93.1784 18.8268 91.286 17.7213 89.2089 17.1418C81.4173 15.0543 50.0423 15.0543 50.0423 15.0543C50.0423 15.0543 18.7548 15.0126 10.8798 17.1418C8.80299 17.7222 6.9111 18.8287 5.38704 20.3543C3.86297 21.8798 2.75828 23.7727 2.17978 25.8501C0.70149 33.8285 -0.0280703 41.9276 0.000615633 50.0418C-0.0226283 58.1267 0.706909 66.1963 2.17978 74.1459C2.7589 76.2225 3.86387 78.1146 5.3879 79.6393C6.91193 81.1641 8.80348 82.27 10.8798 82.8501C18.6673 84.9418 50.0464 84.9418 50.0464 84.9418C50.0464 84.9418 81.3298 84.9418 89.2089 82.8501C91.2865 82.2702 93.1792 81.164 94.7041 79.6384C96.2289 78.1129 97.3342 76.2196 97.9131 74.1418C99.3536 66.1904 100.051 58.1223 99.9964 50.0418C100.057 41.9278 99.3598 33.8259 97.9131 25.8418V25.8459ZM40.0339 65.0126V35.0293L66.1423 50.0459L40.0339 65.0126Z" fill="black"/>
</g>
<defs>
<clipPath id="clip0">
<rect width="100" height="100" fill="white"/>
</clipPath>
</defs>
</svg>
